<svg id="Layer_1" data-name="Layer 1" xmlns="http://www.w3.org/2000/svg" viewBox="0 0 1325.85 804.85"><defs><style>.cls-1{fill:#f7931e;}.cls-2{fill:#fabe78;}</style></defs><title>chromosomes</title><path class="cls-1" d="M147.24,86.42c5.75,8,9.44,17.87,11.88,28.91a52,52,0,0,1,14-3.37q-6.84-19.34-21.85-37.79a7.89,7.89,0,0,0-1.31-5.67c6.62-11.88,8.1-25.85,4.06-42.09a4.27,4.27,0,0,0-2.19-2.81l-.17-.08a6.07,6.07,0,0,0-8.44,7.11q4.86,18-.68,32a1.39,1.39,0,0,1-2.33.39c-6.71-7.4-11.53-17.89-14.33-31.72a5.62,5.62,0,0,0-4.82-4.46l-.16,0a6.46,6.46,0,0,0-6.75,8.23c4.64,16.41,11.76,28.48,21.62,35.81a7.9,7.9,0,0,0,1.07,6.54c-7,18.5-7.28,39.64-3.64,62.34a8.69,8.69,0,0,0,11.36,6.89l.16-.06a7.57,7.57,0,0,0,4.62-9.05c-4.75-18-6.65-35-4.33-50.61A1.25,1.25,0,0,1,147.24,86.42Z" transform="translate(-19.39 5.29)"/><path class="cls-1" d="M174.73,116.95a59.15,59.15,0,0,0-14.56,3.63c.81,4.45,1.45,9.05,2,13.77a9.19,9.19,0,0,0,11.93,7.85l.15-.05a6.46,6.46,0,0,0,4.2-6.78A100.91,100.91,0,0,0,174.73,116.95Z" transform="translate(-19.39 5.29)"/><path class="cls-2" d="M173.1,112a52,52,0,0,0-14,3.37q.57,2.58,1.05,5.24a59.15,59.15,0,0,1,14.56-3.63Q174,114.45,173.1,112Z" transform="translate(-19.39 5.29)"/><path class="cls-1" d="M78,33q-1.94-6.62-4.65-13.43a7.55,7.55,0,0,0-7.78-4.82,5.61,5.61,0,0,0-4.9,4.2,10,10,0,0,0,.38,7.23c1.45,3.33,2.82,6.61,4.06,9.82C69.43,36.41,73.73,35.18,78,33Z" transform="translate(-19.39 5.29)"/><path class="cls-1" d="M97.44,100C95,90.84,90.08,84.25,82.64,80.43a6.91,6.91,0,0,0-1.89-5.31c2.5-11.13,1.94-23-.93-35.36a25,25,0,0,1-12.19,3c3.24,9.57,5.06,18.3,4.44,25.59a.71.71,0,0,1-1.2.44C61.23,59.44,55,45.29,50.13,29.32a7,7,0,0,0-6.46-5,6.63,6.63,0,0,0-3.81,1.14,7.91,7.91,0,0,0-3,9.16c5.7,16.75,16.29,32.08,32,45.95a6.92,6.92,0,0,0,3.1,5.18c-1,7.93-.95,15.65,2.4,22.71a6.15,6.15,0,0,0,4,3.41,3.64,3.64,0,0,0,3.94-1.22,5.16,5.16,0,0,0,.38-6.06c-3.54-5.66-4.55-11.8-4.42-18.16l0,0a7,7,0,0,0,1.81-1.05,35.52,35.52,0,0,1,9.3,17.39,4.74,4.74,0,0,0,2.4,3.26,3.33,3.33,0,0,0,3.66-.24A5.29,5.29,0,0,0,97.44,100Z" transform="translate(-19.39 5.29)"/><path class="cls-2" d="M79.82,39.77Q79,36.42,78,33c-4.32,2.17-8.61,3.39-12.88,3q1.33,3.44,2.46,6.77A25,25,0,0,0,79.82,39.77Z" transform="translate(-19.39 5.29)"/><path class="cls-1" d="M242.65,35.27a5,5,0,0,0-.26-4.32,3,3,0,0,0-2.95-1.65,4.22,4.22,0,0,0-3.81,3.2A22.38,22.38,0,0,1,234,36.9a50.79,50.79,0,0,1,6.36,2.83A23.84,23.84,0,0,0,242.65,35.27Z" transform="translate(-19.39 5.29)"/><path class="cls-1" d="M238.23,42.59a44.44,44.44,0,0,0-6-2.59,32.54,32.54,0,0,1-4.81,5.4l0,0a5.7,5.7,0,0,0-1.65-.48,29.09,29.09,0,0,1,5-15.34,3.88,3.88,0,0,0,.58-3.27,2.72,2.72,0,0,0-2.21-2,4.34,4.34,0,0,0-4.52,2.05c-4,6.66-5.19,13.28-3.25,19.85a5.65,5.65,0,0,0-2.08,4.11C207,57.63,197.8,70.21,190.52,86a6.18,6.18,0,0,0,1.54,7.33,4.59,4.59,0,0,0,5.26.53,8.23,8.23,0,0,0,4.07-4.32c5.55-13.2,11.53-24.51,18.79-30.34a.58.58,0,0,1,.94.46c-.1,11-5,22.69-11.68,34.61a5.71,5.71,0,0,0,.68,6.66,5.43,5.43,0,0,0,2.83,1.61,6.47,6.47,0,0,0,7.14-3.38c6.7-12.85,9.79-27.79,9.15-44.91a5.67,5.67,0,0,0,1.32-4.77A45.09,45.09,0,0,0,238.23,42.59Z" transform="translate(-19.39 5.29)"/><path class="cls-2" d="M234,36.9A24.18,24.18,0,0,1,232.18,40a44.44,44.44,0,0,1,6,2.59,28,28,0,0,0,2.14-2.86A50.79,50.79,0,0,0,234,36.9Z" transform="translate(-19.39 5.29)"/><path class="cls-1" d="M96.66,230.34A116.8,116.8,0,0,1,89.56,218a53.36,53.36,0,0,1-12.44,3.9,89.43,89.43,0,0,0,7.48,13.77,9.44,9.44,0,0,0,8.22,4.22,4.78,4.78,0,0,0,4.51-2.85A6.88,6.88,0,0,0,96.66,230.34Z" transform="translate(-19.39 5.29)"/><path class="cls-2" d="M85.71,210a31.38,31.38,0,0,1-11.9,3.74c1,2.82,2.12,5.56,3.3,8.22A53.36,53.36,0,0,0,89.56,218C88.23,215.43,86.95,212.73,85.71,210Z" transform="translate(-19.39 5.29)"/><path class="cls-1" d="M95.31,127.91c-1.61-1.71-3.49-1.62-5.71.74A13.75,13.75,0,0,0,87,132.84a101.79,101.79,0,0,1-19.51,29.78,1.44,1.44,0,0,1-2.37-.4c-3.84-8.63-6.61-17.7-6.3-28a9.49,9.49,0,0,0-1.36-5.32C56,126.6,54.22,126,52.1,126.81a6.89,6.89,0,0,0-4.19,7.45c1.57,11.36,7.74,26.24,10.9,33.31a8.32,8.32,0,0,0-.27,7.23c-6.95,11.12-9.78,25-11,38.9q-.15,1.69-.27,3.39c-.43,6-.6,12-.71,17.69a5.06,5.06,0,0,0,2.68,4.62,13.15,13.15,0,0,0,1.42.63,7.22,7.22,0,0,0,9.63-7.33c-.33-4.73-.44-9.74-.35-14.83q0-1.44.07-2.89c.39-11.75,1.92-23.71,4.79-33.46a.63.63,0,0,1,1.24.1,160.84,160.84,0,0,0,7.8,32.12A31.38,31.38,0,0,0,85.71,210c-5.24-11.64-9.65-24.07-12.82-33.58a8.28,8.28,0,0,0,1.2-7.56c9.72-10.09,17.51-21.44,22.43-34.06A6.54,6.54,0,0,0,95.31,127.91Z" transform="translate(-19.39 5.29)"/><path class="cls-1" d="M223.4,131.18c-4.87-3.53-9.86-6.83-14.65-9.94a5.06,5.06,0,0,0-5.34-.16,13.14,13.14,0,0,0-1.29.88,7.22,7.22,0,0,0,1.15,12c4.19,2.22,8.51,4.76,12.78,7.52A36.71,36.71,0,0,0,223.4,131.18Z" transform="translate(-19.39 5.29)"/><path class="cls-1" d="M186.08,166.17a116.79,116.79,0,0,1,14.2.45c2.92.25,5.89.59,8.88,1,12.65,1.68,25.54,4.49,35.29,6.82a8.28,8.28,0,0,0,5.79,5c3.45,13.58,9,26.18,17.11,37a6.54,6.54,0,0,0,6.46,2.59c2.3-.47,3.22-2.12,2.39-5.24a13.75,13.75,0,0,0-2.18-4.43,101.79,101.79,0,0,1-15-32.28,1.44,1.44,0,0,1,1.59-1.8c9.36,1.29,18.53,3.72,27.12,9.43a9.49,9.49,0,0,0,5.24,1.64c2.69,0,4.15-1.22,4.58-3.45a6.89,6.89,0,0,0-4.12-7.49c-10.48-4.66-26.38-7.26-34-8.31a8.32,8.32,0,0,0-6-4c-5.79-11.77-16.07-21.49-27.24-29.87a37.7,37.7,0,0,1-7.66,9.91c9.77,6.53,19.13,14.14,25.91,21.72a.63.63,0,0,1-.73,1,160.84,160.84,0,0,0-31.4-10.31c-2.93-.62-5.84-1.13-8.73-1.53a89.42,89.42,0,0,0-15.64-.91,9.44,9.44,0,0,0-7.92,4.76,4.78,4.78,0,0,0,0,5.34A6.88,6.88,0,0,0,186.08,166.17Z" transform="translate(-19.39 5.29)"/><path class="cls-2" d="M226.14,133.2q-1.36-1-2.74-2a36.71,36.71,0,0,1-7.35,10.34l2.42,1.59A37.7,37.7,0,0,0,226.14,133.2Z" transform="translate(-19.39 5.29)"/><path class="cls-1" d="M128,187.29a5,5,0,0,0-4,1.62,3,3,0,0,0-.62,3.32,4.22,4.22,0,0,0,4.25,2.59,22.38,22.38,0,0,1,4.68.15A50.79,50.79,0,0,1,133,188,23.84,23.84,0,0,0,128,187.29Z" transform="translate(-19.39 5.29)"/><path class="cls-1" d="M136.35,189.16a44.44,44.44,0,0,0-.54,6.56,32.54,32.54,0,0,1,6.65,2.84v0a5.7,5.7,0,0,0,.07,1.71,29.09,29.09,0,0,1-16.15.1,3.88,3.88,0,0,0-3.28.49,2.72,2.72,0,0,0-1.23,2.74,4.34,4.34,0,0,0,3.38,3.64c7.6,1.71,14.24.69,19.85-3.24a5.65,5.65,0,0,0,4.56.66c10.89,9.28,25.74,14,43.05,15.87a6.18,6.18,0,0,0,6.46-3.79,4.59,4.59,0,0,0-1.17-5.15,8.23,8.23,0,0,0-5.39-2.48c-14.28-1.06-26.9-3.13-34.74-8.16a.58.58,0,0,1,.14-1c10.47-3.41,23.09-2.5,36.53.05a5.71,5.71,0,0,0,6.1-2.77,5.43,5.43,0,0,0,.63-3.19,6.47,6.47,0,0,0-5.47-5.7c-14.31-2.26-29.46-.44-45.48,5.62a5.67,5.67,0,0,0-4.94.27A45.09,45.09,0,0,0,136.35,189.16Z" transform="translate(-19.39 5.29)"/><path class="cls-2" d="M132.3,195a24.18,24.18,0,0,1,3.52.75,44.44,44.44,0,0,1,.54-6.56A28,28,0,0,0,133,188,50.79,50.79,0,0,0,132.3,195Z" transform="translate(-19.39 5.29)"/><path class="cls-1" d="M436.36,196.92c-6.83-9.37-11.24-21-14.19-34A61.26,61.26,0,0,1,405.72,167q8.18,22.75,26,44.39a9.3,9.3,0,0,0,1.58,6.67c-7.72,14-9.37,30.52-4.5,49.62a5,5,0,0,0,2.6,3.29l.2.09a7.15,7.15,0,0,0,9.89-8.44q-5.85-21.18.59-37.74a1.64,1.64,0,0,1,2.74-.48c8,8.67,13.71,21,17.1,37.28a6.62,6.62,0,0,0,5.7,5.22l.19,0a7.61,7.61,0,0,0,7.9-9.75c-5.57-19.3-14-33.48-25.71-42.06a9.31,9.31,0,0,0-1.3-7.7c8.11-21.85,8.32-46.76,3.87-73.48a10.24,10.24,0,0,0-13.44-8l-.18.07a8.91,8.91,0,0,0-5.38,10.7c5.72,21.18,8.06,41.23,5.44,59.61A1.47,1.47,0,0,1,436.36,196.92Z" transform="translate(-19.39 5.29)"/><path class="cls-1" d="M403.77,161.13a69.7,69.7,0,0,0,17.13-4.37c-1-5.23-1.76-10.66-2.4-16.22a10.82,10.82,0,0,0-14.11-9.17l-.18.06a7.61,7.61,0,0,0-4.9,8A118.91,118.91,0,0,0,403.77,161.13Z" transform="translate(-19.39 5.29)"/><path class="cls-2" d="M405.72,167a61.26,61.26,0,0,0,16.46-4.07q-.69-3-1.28-6.17a69.7,69.7,0,0,1-17.13,4.37Q404.66,164.08,405.72,167Z" transform="translate(-19.39 5.29)"/><path class="cls-1" d="M518.25,259.4q2.33,7.79,5.56,15.79a8.9,8.9,0,0,0,9.2,5.63c2.8-.33,4.73-2,5.74-5a11.84,11.84,0,0,0-.5-8.52c-1.73-3.92-3.36-7.77-4.85-11.55C528.38,255.34,523.32,256.82,518.25,259.4Z" transform="translate(-19.39 5.29)"/><path class="cls-1" d="M495,180.56c3,10.81,8.77,18.54,17.56,23a8.14,8.14,0,0,0,2.26,6.24c-2.87,13.13-2.14,27.08,1.33,41.66,4.74-2.38,9.52-3.82,14.35-3.63-3.88-11.26-6.08-21.53-5.4-30.13a.83.83,0,0,1,1.41-.52c11.42,11,18.82,27.61,24.69,46.41a8.22,8.22,0,0,0,7.65,5.87,7.81,7.81,0,0,0,4.48-1.37,9.32,9.32,0,0,0,3.52-10.81c-6.83-19.7-19.4-37.7-38-53.93a8.15,8.15,0,0,0-3.69-6.08c1.13-9.36,1-18.45-3-26.74a7.25,7.25,0,0,0-4.78-4,4.29,4.29,0,0,0-4.63,1.46,6.08,6.08,0,0,0-.41,7.15c4.21,6.64,5.44,13.87,5.32,21.37l-.05,0a8.2,8.2,0,0,0-2.13,1.25,41.86,41.86,0,0,1-11.07-20.43,5.59,5.59,0,0,0-2.85-3.83,3.92,3.92,0,0,0-4.32.3A6.24,6.24,0,0,0,495,180.56Z" transform="translate(-19.39 5.29)"/><path class="cls-2" d="M516.11,251.45q.94,3.95,2.14,8c5.07-2.59,10.13-4.06,15.16-3.63q-1.59-4-2.95-8C525.63,247.63,520.85,249.07,516.11,251.45Z" transform="translate(-19.39 5.29)"/><path class="cls-1" d="M324.27,257.83a5.94,5.94,0,0,0,.33,5.09,3.52,3.52,0,0,0,3.48,1.92,5,5,0,0,0,4.47-3.8,26.38,26.38,0,0,1,1.89-5.18,59.85,59.85,0,0,1-7.51-3.29A28.09,28.09,0,0,0,324.27,257.83Z" transform="translate(-19.39 5.29)"/><path class="cls-1" d="M329.44,249.17a52.36,52.36,0,0,0,7.14,3,38.35,38.35,0,0,1,5.63-6.39l0,0a6.71,6.71,0,0,0,1.94.55,34.28,34.28,0,0,1-5.85,18.11,4.58,4.58,0,0,0-.66,3.85,3.21,3.21,0,0,0,2.62,2.39,5.11,5.11,0,0,0,5.32-2.45c4.72-7.88,6-15.68,3.69-23.41a6.66,6.66,0,0,0,2.42-4.86c14.4-8.76,25.16-23.64,33.64-42.33a7.29,7.29,0,0,0-1.86-8.63,5.41,5.41,0,0,0-6.2-.58,9.7,9.7,0,0,0-4.76,5.12c-6.45,15.6-13.43,29-21.94,35.87a.68.68,0,0,1-1.11-.54c0-13,5.71-26.76,13.53-40.87a6.73,6.73,0,0,0-.85-7.85,6.4,6.4,0,0,0-3.34-1.88,7.63,7.63,0,0,0-8.39,4c-7.81,15.18-11.36,32.81-10.48,53a6.68,6.68,0,0,0-1.52,5.63A53.13,53.13,0,0,0,329.44,249.17Z" transform="translate(-19.39 5.29)"/><path class="cls-2" d="M334.45,255.85a28.49,28.49,0,0,1,2.13-3.66,52.36,52.36,0,0,1-7.14-3,32.93,32.93,0,0,0-2.5,3.39A59.85,59.85,0,0,0,334.45,255.85Z" transform="translate(-19.39 5.29)"/><path class="cls-1" d="M495,27a137.63,137.63,0,0,1,8.46,14.44,62.88,62.88,0,0,1,14.63-4.68,105.38,105.38,0,0,0-8.9-16.18,11.12,11.12,0,0,0-9.71-4.92,5.64,5.64,0,0,0-5.3,3.39A8.1,8.1,0,0,0,495,27Z" transform="translate(-19.39 5.29)"/><path class="cls-2" d="M508,50.92a37,37,0,0,1,14-4.49c-1.21-3.31-2.54-6.54-3.95-9.67a62.88,62.88,0,0,0-14.63,4.68C505,44.51,506.57,47.69,508,50.92Z" transform="translate(-19.39 5.29)"/><path class="cls-1" d="M497.28,147.69c1.91,2,4.13,1.88,6.73-.91a16.2,16.2,0,0,0,3.05-4.95c5-12.19,12.54-23.94,22.79-35.22a1.69,1.69,0,0,1,2.79.46c4.59,10.15,7.91,20.82,7.6,33a11.18,11.18,0,0,0,1.64,6.26c1.69,2.68,3.82,3.37,6.31,2.4a8.12,8.12,0,0,0,4.89-8.81c-1.92-13.38-9.3-30.87-13.06-39.18a9.8,9.8,0,0,0,.26-8.52C548.41,79.05,551.65,62.69,553,46.3q.17-2,.3-4c.47-7.08.63-14.11.73-20.85A6,6,0,0,0,550.85,16a15.49,15.49,0,0,0-1.68-.74A8.51,8.51,0,0,0,537.87,24c.41,5.57.59,11.47.52,17.47q0,1.7-.07,3.41c-.38,13.84-2.11,28-5.42,39.47a.75.75,0,0,1-1.46-.1,189.53,189.53,0,0,0-9.4-37.8,37,37,0,0,0-14,4.49c6.25,13.68,11.53,28.3,15.33,39.49A9.76,9.76,0,0,0,522,99.33c-11.39,12-20.49,25.38-26.2,40.29A7.71,7.71,0,0,0,497.28,147.69Z" transform="translate(-19.39 5.29)"/><path class="cls-1" d="M346.32,144.68c5.77,4.13,11.66,8,17.33,11.61a6,6,0,0,0,6.29.15,15.49,15.49,0,0,0,1.51-1A8.51,8.51,0,0,0,370,141.22c-4.95-2.58-10.06-5.55-15.11-8.77A43.25,43.25,0,0,0,346.32,144.68Z" transform="translate(-19.39 5.29)"/><path class="cls-1" d="M390.07,103.21a137.63,137.63,0,0,1-16.73-.43c-3.44-.28-6.94-.65-10.47-1.1-14.92-1.9-30.13-5.12-41.63-7.8A9.76,9.76,0,0,0,314.38,88C310.22,72,303.62,57.21,294,44.49a7.71,7.71,0,0,0-7.63-3c-2.71.57-3.78,2.51-2.78,6.2a16.2,16.2,0,0,0,2.59,5.2c7.73,10.67,13.73,23.28,17.9,37.94A1.69,1.69,0,0,1,302.19,93c-11-1.45-21.86-4.26-32-10.93a11.18,11.18,0,0,0-6.18-1.9c-3.17,0-4.88,1.47-5.37,4.1a8.12,8.12,0,0,0,4.91,8.8c12.38,5.43,31.13,8.38,40.18,9.56a9.8,9.8,0,0,0,7.1,4.72c6.9,13.83,19.08,25.21,32.29,35a44.43,44.43,0,0,1,9-11.73c-11.56-7.63-22.64-16.53-30.67-25.42a.75.75,0,0,1,.86-1.18,189.53,189.53,0,0,0,37.07,11.95c3.45.71,6.89,1.29,10.29,1.75a105.37,105.37,0,0,0,18.44,1,11.12,11.12,0,0,0,9.3-5.66,5.64,5.64,0,0,0-.08-6.29A8.1,8.1,0,0,0,390.07,103.21Z" transform="translate(-19.39 5.29)"/><path class="cls-2" d="M343.08,142.32q1.61,1.19,3.24,2.36a43.25,43.25,0,0,1,8.59-12.24q-1.43-.91-2.86-1.85A44.43,44.43,0,0,0,343.08,142.32Z" transform="translate(-19.39 5.29)"/><path class="cls-1" d="M458.36,77.93A5.94,5.94,0,0,0,463.07,76a3.52,3.52,0,0,0,.71-3.91,5,5,0,0,0-5-3,26.38,26.38,0,0,1-5.52-.14,59.85,59.85,0,0,1-.73,8.17A28.09,28.09,0,0,0,458.36,77.93Z" transform="translate(-19.39 5.29)"/><path class="cls-1" d="M448.51,75.79a52.36,52.36,0,0,0,.59-7.73,38.35,38.35,0,0,1-7.85-3.3v0a6.71,6.71,0,0,0-.09-2,34.28,34.28,0,0,1,19-.22,4.58,4.58,0,0,0,3.86-.6,3.21,3.21,0,0,0,1.43-3.24,5.11,5.11,0,0,0-4-4.26c-9-2-16.78-.72-23.36,3.95a6.66,6.66,0,0,0-5.38-.75c-12.89-10.87-30.42-16.32-50.84-18.42a7.29,7.29,0,0,0-7.59,4.51,5.41,5.41,0,0,0,1.42,6.06,9.7,9.7,0,0,0,6.37,2.89c16.84,1.15,31.72,3.52,41,9.39a.68.68,0,0,1-.16,1.22c-12.32,4.08-27.19,3.1-43,.18a6.73,6.73,0,0,0-7.17,3.3,6.4,6.4,0,0,0-.72,3.77,7.63,7.63,0,0,0,6.49,6.68c16.88,2.57,34.72.33,53.56-6.92a6.68,6.68,0,0,0,5.82-.35A53.13,53.13,0,0,0,448.51,75.79Z" transform="translate(-19.39 5.29)"/><path class="cls-2" d="M453.25,68.91a28.49,28.49,0,0,1-4.15-.86,52.36,52.36,0,0,1-.59,7.73,32.93,32.93,0,0,0,4,1.3A59.85,59.85,0,0,0,453.25,68.91Z" transform="translate(-19.39 5.29)"/><path class="cls-1" d="M244.67,301.82c5.75,8,9.44,17.87,11.88,28.91a52,52,0,0,1,14-3.37Q263.7,308,248.69,289.57a7.89,7.89,0,0,0-1.31-5.67c6.62-11.88,8.1-25.85,4.06-42.09a4.27,4.27,0,0,0-2.19-2.81l-.17-.08a6.07,6.07,0,0,0-8.44,7.11q4.86,18-.68,32a1.39,1.39,0,0,1-2.33.39c-6.71-7.4-11.53-17.89-14.33-31.72a5.62,5.62,0,0,0-4.82-4.46l-.16,0a6.46,6.46,0,0,0-6.75,8.23c4.64,16.41,11.76,28.48,21.62,35.81a7.9,7.9,0,0,0,1.07,6.54c-7,18.5-7.28,39.64-3.64,62.34A8.69,8.69,0,0,0,242,362.08l.16-.06a7.57,7.57,0,0,0,4.62-9.05c-4.75-18-6.65-35-4.33-50.61A1.25,1.25,0,0,1,244.67,301.82Z" transform="translate(-19.39 5.29)"/><path class="cls-1" d="M272.16,332.35A59.15,59.15,0,0,0,257.6,336c.81,4.45,1.45,9.05,2,13.77a9.19,9.19,0,0,0,11.93,7.85l.15-.05a6.46,6.46,0,0,0,4.2-6.78A100.91,100.91,0,0,0,272.16,332.35Z" transform="translate(-19.39 5.29)"/><path class="cls-2" d="M270.53,327.36a52,52,0,0,0-14,3.37q.57,2.58,1.05,5.24a59.15,59.15,0,0,1,14.56-3.63Q271.42,329.85,270.53,327.36Z" transform="translate(-19.39 5.29)"/><path class="cls-1" d="M175.48,248.42q-1.94-6.62-4.65-13.43a7.55,7.55,0,0,0-7.78-4.82,5.61,5.61,0,0,0-4.9,4.2,10,10,0,0,0,.38,7.23c1.45,3.33,2.82,6.61,4.06,9.82C166.86,251.81,171.16,250.59,175.48,248.42Z" transform="translate(-19.39 5.29)"/><path class="cls-1" d="M194.87,315.44c-2.48-9.19-7.36-15.78-14.79-19.6a6.91,6.91,0,0,0-1.89-5.31c2.5-11.13,1.94-23-.93-35.36a25,25,0,0,1-12.19,3c3.24,9.57,5.06,18.3,4.44,25.59a.71.71,0,0,1-1.2.44c-9.64-9.37-15.84-23.52-20.73-39.5a7,7,0,0,0-6.46-5,6.63,6.63,0,0,0-3.81,1.14,7.91,7.91,0,0,0-3,9.16c5.7,16.75,16.29,32.08,32,45.95a6.92,6.92,0,0,0,3.1,5.18c-1,7.93-.95,15.65,2.4,22.71a6.15,6.15,0,0,0,4,3.41,3.64,3.64,0,0,0,3.94-1.22,5.16,5.16,0,0,0,.38-6.06c-3.54-5.66-4.55-11.8-4.42-18.16l0,0a7,7,0,0,0,1.81-1.05,35.52,35.52,0,0,1,9.3,17.39,4.74,4.74,0,0,0,2.4,3.26,3.33,3.33,0,0,0,3.66-.24A5.29,5.29,0,0,0,194.87,315.44Z" transform="translate(-19.39 5.29)"/><path class="cls-2" d="M177.25,255.17q-.78-3.35-1.78-6.76c-4.32,2.17-8.61,3.39-12.88,3q1.33,3.44,2.46,6.77A25,25,0,0,0,177.25,255.17Z" transform="translate(-19.39 5.29)"/><path class="cls-1" d="M106.48,301.15a5,5,0,0,0-.26-4.32,3,3,0,0,0-2.95-1.65,4.22,4.22,0,0,0-3.81,3.2,22.38,22.38,0,0,1-1.63,4.39,50.79,50.79,0,0,1,6.36,2.83A23.84,23.84,0,0,0,106.48,301.15Z" transform="translate(-19.39 5.29)"/><path class="cls-1" d="M102.06,308.47a44.44,44.44,0,0,0-6-2.59,32.54,32.54,0,0,1-4.81,5.4l0,0a5.7,5.7,0,0,0-1.65-.48,29.09,29.09,0,0,1,5-15.34,3.88,3.88,0,0,0,.58-3.27,2.72,2.72,0,0,0-2.21-2,4.34,4.34,0,0,0-4.52,2.05c-4,6.66-5.19,13.28-3.25,19.85a5.65,5.65,0,0,0-2.08,4.11c-12.26,7.37-21.46,19.94-28.75,35.76a6.18,6.18,0,0,0,1.54,7.33,4.59,4.59,0,0,0,5.26.53,8.23,8.23,0,0,0,4.07-4.32c5.55-13.2,11.53-24.51,18.79-30.34a.58.58,0,0,1,.94.46c-.1,11-5,22.69-11.68,34.61a5.71,5.71,0,0,0,.68,6.66,5.43,5.43,0,0,0,2.83,1.61,6.47,6.47,0,0,0,7.14-3.38c6.7-12.85,9.79-27.79,9.15-44.91a5.67,5.67,0,0,0,1.32-4.77A45.09,45.09,0,0,0,102.06,308.47Z" transform="translate(-19.39 5.29)"/><path class="cls-2" d="M97.84,302.78A24.18,24.18,0,0,1,96,305.87a44.44,44.44,0,0,1,6,2.59,28,28,0,0,0,2.14-2.86A50.79,50.79,0,0,0,97.84,302.78Z" transform="translate(-19.39 5.29)"/><path class="cls-1" d="M148.39,340.09a116.8,116.8,0,0,1-6.52,12.62,53.36,53.36,0,0,1,10,8.37,89.43,89.43,0,0,0,7.55-13.73,9.44,9.44,0,0,0-.88-9.2,4.78,4.78,0,0,0-4.83-2.26A6.88,6.88,0,0,0,148.39,340.09Z" transform="translate(-19.39 5.29)"/><path class="cls-2" d="M137.17,360.3a31.38,31.38,0,0,1,9.57,8c1.82-2.37,3.53-4.79,5.14-7.22a53.36,53.36,0,0,0-10-8.37C140.4,355.24,138.81,357.78,137.17,360.3Z" transform="translate(-19.39 5.29)"/><path class="cls-1" d="M62.9,396.52c-.57,2.28.52,3.82,3.71,4.41a13.75,13.75,0,0,0,4.93-.06,101.79,101.79,0,0,1,35.6.35,1.44,1.44,0,0,1,.94,2.21c-5.19,7.9-11.33,15.12-20.19,20.42a9.49,9.49,0,0,0-3.74,4c-1.15,2.43-.68,4.27,1.14,5.62a6.89,6.89,0,0,0,8.54-.49c8.72-7.45,17.91-20.68,22.16-27.15a8.32,8.32,0,0,0,6.23-3.68c13.11-.16,26.31-5.26,38.69-11.72q1.51-.79,3-1.6c5.29-2.88,10.4-6,15.28-8.95a5.06,5.06,0,0,0,2.44-4.75,13.15,13.15,0,0,0-.24-1.54A7.22,7.22,0,0,0,170,369.46c-3.8,2.83-8,5.63-12.29,8.3l-2.47,1.5c-10.1,6-21,11.18-30.75,14a.63.63,0,0,1-.59-1.09,160.84,160.84,0,0,0,22.83-23.9,31.38,31.38,0,0,0-9.57-8c-7,10.69-15.05,21.12-21.35,28.92a8.28,8.28,0,0,0-7,3.07c-13.74-2.73-27.5-3.16-40.78-.49A6.54,6.54,0,0,0,62.9,396.52Z" transform="translate(-19.39 5.29)"/><path class="cls-1" d="M341.17,417.07c-1.62,4.67-3,9.36-4.36,13.86a4.17,4.17,0,0,0,1.08,4.22,10.37,10.37,0,0,0,1,.8,5.81,5.81,0,0,0,9-3.79c.77-3.81,1.75-7.81,2.91-11.82A28.6,28.6,0,0,0,341.17,417.07Z" transform="translate(-19.39 5.29)"/><path class="cls-1" d="M376.44,437.92a96.53,96.53,0,0,1-2.84-11.23c-.46-2.34-.87-4.75-1.23-7.19-1.54-10.32-2.27-21.09-2.67-29.29a7,7,0,0,0,2.55-5.74,85.37,85.37,0,0,0,24.63-22.29,5.48,5.48,0,0,0,.54-5.68c-.88-1.69-2.35-2-4.57-.61a11.33,11.33,0,0,0-2.92,2.77,83.81,83.81,0,0,1-21.46,19.5,1.13,1.13,0,0,1-1.74-.81c-1.11-7.64-1.29-15.41,1.17-23.51a8,8,0,0,0,.09-4.5c-.61-2.11-1.87-3-3.68-2.76a5.69,5.69,0,0,0-4.84,5c-1.24,9.33.33,22.41,1.25,28.67a7,7,0,0,0-1.76,5.67c-7.75,7.36-12.92,17.75-16.86,28.5a29.39,29.39,0,0,1,9.34,3.63,117.71,117.71,0,0,1,10.89-25.51.5.5,0,0,1,.93.33,135,135,0,0,0-.89,27.08q.27,3.66.78,7.2A74,74,0,0,0,366,439.65a7.49,7.49,0,0,0,5.43,5.07,3.82,3.82,0,0,0,4.1-1.31A5.77,5.77,0,0,0,376.44,437.92Z" transform="translate(-19.39 5.29)"/><path class="cls-2" d="M342.11,414.44q-.48,1.31-.94,2.63a28.6,28.6,0,0,1,9.6,3.27q.33-1.14.68-2.28A29.39,29.39,0,0,0,342.11,414.44Z" transform="translate(-19.39 5.29)"/><path class="cls-1" d="M225.44,402.7a5,5,0,0,0-4,1.62,3,3,0,0,0-.62,3.32,4.22,4.22,0,0,0,4.25,2.59,22.38,22.38,0,0,1,4.68.15,50.79,50.79,0,0,1,.66-6.93A23.84,23.84,0,0,0,225.44,402.7Z" transform="translate(-19.39 5.29)"/><path class="cls-1" d="M233.78,404.56a44.44,44.44,0,0,0-.54,6.56A32.54,32.54,0,0,1,239.9,414v0a5.7,5.7,0,0,0,.07,1.71,29.09,29.09,0,0,1-16.15.1,3.88,3.88,0,0,0-3.28.49A2.72,2.72,0,0,0,219.3,419a4.34,4.34,0,0,0,3.38,3.64c7.6,1.71,14.24.69,19.85-3.24a5.65,5.65,0,0,0,4.56.66c10.89,9.28,25.74,14,43.05,15.87a6.18,6.18,0,0,0,6.46-3.79,4.59,4.59,0,0,0-1.17-5.15,8.23,8.23,0,0,0-5.39-2.48c-14.28-1.06-26.9-3.13-34.74-8.16a.58.58,0,0,1,.14-1c10.47-3.41,23.09-2.5,36.53.05a5.71,5.71,0,0,0,6.1-2.77,5.43,5.43,0,0,0,.63-3.19,6.47,6.47,0,0,0-5.47-5.7c-14.31-2.26-29.46-.44-45.48,5.62a5.67,5.67,0,0,0-4.94.27A45.09,45.09,0,0,0,233.78,404.56Z" transform="translate(-19.39 5.29)"/><path class="cls-2" d="M229.73,410.37a24.18,24.18,0,0,1,3.52.75,44.44,44.44,0,0,1,.54-6.56,28,28,0,0,0-3.39-1.12A50.79,50.79,0,0,0,229.73,410.37Z" transform="translate(-19.39 5.29)"/><path class="cls-1" d="M542.59,374.76c-6.83-9.37-11.24-21-14.19-34A61.26,61.26,0,0,1,512,344.84q8.18,22.75,26,44.39a9.3,9.3,0,0,0,1.58,6.67c-7.72,14-9.37,30.52-4.5,49.62a5,5,0,0,0,2.6,3.29l.2.09a7.15,7.15,0,0,0,9.89-8.44q-5.85-21.18.59-37.74a1.64,1.64,0,0,1,2.74-.48c8,8.67,13.71,21,17.1,37.28a6.62,6.62,0,0,0,5.7,5.22l.19,0a7.61,7.61,0,0,0,7.9-9.75c-5.57-19.3-14-33.48-25.71-42.06a9.31,9.31,0,0,0-1.3-7.7c8.11-21.85,8.32-46.76,3.87-73.48a10.24,10.24,0,0,0-13.44-8l-.18.07a8.91,8.91,0,0,0-5.38,10.7c5.72,21.18,8.06,41.23,5.44,59.61A1.47,1.47,0,0,1,542.59,374.76Z" transform="translate(-19.39 5.29)"/><path class="cls-1" d="M510,339a69.7,69.7,0,0,0,17.13-4.37c-1-5.23-1.76-10.66-2.4-16.22a10.82,10.82,0,0,0-14.11-9.17l-.18.06a7.61,7.61,0,0,0-4.9,8A118.91,118.91,0,0,0,510,339Z" transform="translate(-19.39 5.29)"/><path class="cls-2" d="M512,344.84a61.26,61.26,0,0,0,16.46-4.07q-.69-3-1.28-6.17A69.7,69.7,0,0,1,510,339Q510.9,341.92,512,344.84Z" transform="translate(-19.39 5.29)"/><path class="cls-1" d="M722.5,385.59q2.33,7.79,5.56,15.79a8.9,8.9,0,0,0,9.2,5.63c2.8-.33,4.73-2,5.74-5a11.84,11.84,0,0,0-.5-8.52c-1.73-3.92-3.36-7.77-4.85-11.55C732.63,381.53,727.57,383,722.5,385.59Z" transform="translate(-19.39 5.29)"/><path class="cls-1" d="M699.21,306.75c3,10.81,8.77,18.54,17.56,23A8.14,8.14,0,0,0,719,336c-2.87,13.13-2.14,27.08,1.33,41.66,4.74-2.38,9.52-3.82,14.35-3.63-3.88-11.26-6.08-21.53-5.4-30.13a.83.83,0,0,1,1.41-.52c11.42,11,18.82,27.61,24.69,46.41a8.22,8.22,0,0,0,7.65,5.87,7.81,7.81,0,0,0,4.48-1.37,9.32,9.32,0,0,0,3.52-10.81c-6.83-19.7-19.4-37.7-38-53.93a8.15,8.15,0,0,0-3.69-6.08c1.13-9.36,1-18.45-3-26.74a7.25,7.25,0,0,0-4.78-4,4.29,4.29,0,0,0-4.63,1.46,6.08,6.08,0,0,0-.41,7.15c4.21,6.64,5.44,13.87,5.32,21.37l-.05,0a8.2,8.2,0,0,0-2.13,1.25,41.86,41.86,0,0,1-11.07-20.43,5.59,5.59,0,0,0-2.85-3.83,3.92,3.92,0,0,0-4.32.3A6.24,6.24,0,0,0,699.21,306.75Z" transform="translate(-19.39 5.29)"/><path class="cls-2" d="M720.36,377.64q.94,3.95,2.14,8c5.07-2.59,10.13-4.06,15.16-3.63q-1.59-4-2.95-8C729.88,373.82,725.11,375.26,720.36,377.64Z" transform="translate(-19.39 5.29)"/><path class="cls-1" d="M709.46,208.91a5.94,5.94,0,0,0-4.89,1.44,3.52,3.52,0,0,0-1.11,3.82,5,5,0,0,0,4.69,3.52,26.38,26.38,0,0,1,5.47.7,59.85,59.85,0,0,1,1.56-8.05A28.09,28.09,0,0,0,709.46,208.91Z" transform="translate(-19.39 5.29)"/><path class="cls-1" d="M719,212a52.36,52.36,0,0,0-1.37,7.63,38.35,38.35,0,0,1,7.47,4.08v0a6.71,6.71,0,0,0-.11,2,34.28,34.28,0,0,1-19-1.72,4.58,4.58,0,0,0-3.9.21,3.21,3.21,0,0,0-1.75,3.08A5.11,5.11,0,0,0,704,232c8.72,2.87,16.62,2.43,23.65-1.54a6.66,6.66,0,0,0,5.27,1.29c11.71,12.12,28.59,19.34,48.69,23.51a7.29,7.29,0,0,0,8-3.71,5.41,5.41,0,0,0-.79-6.18,9.7,9.7,0,0,0-6-3.52c-16.63-2.86-31.2-6.73-39.82-13.52a.68.68,0,0,1,.28-1.2c12.67-2.81,27.37-.31,42.84,4.21a6.73,6.73,0,0,0,7.47-2.55,6.4,6.4,0,0,0,1.1-3.67,7.63,7.63,0,0,0-5.77-7.3c-16.53-4.28-34.5-3.87-54,1.42A6.68,6.68,0,0,0,729,219,53.13,53.13,0,0,0,719,212Z" transform="translate(-19.39 5.29)"/><path class="cls-2" d="M713.62,218.4a28.49,28.49,0,0,1,4,1.27A52.36,52.36,0,0,1,719,212a32.93,32.93,0,0,0-3.85-1.7A59.85,59.85,0,0,0,713.62,218.4Z" transform="translate(-19.39 5.29)"/><path class="cls-1" d="M611.81,252.38a137.63,137.63,0,0,1,8.46,14.44,62.88,62.88,0,0,1,14.63-4.68A105.38,105.38,0,0,0,626,246a11.12,11.12,0,0,0-9.71-4.92,5.64,5.64,0,0,0-5.3,3.39A8.1,8.1,0,0,0,611.81,252.38Z" transform="translate(-19.39 5.29)"/><path class="cls-2" d="M624.85,276.3a37,37,0,0,1,14-4.49c-1.21-3.31-2.54-6.54-3.95-9.67a62.88,62.88,0,0,0-14.63,4.68C621.84,269.89,623.37,273.07,624.85,276.3Z" transform="translate(-19.39 5.29)"/><path class="cls-1" d="M614.08,373.07c1.91,2,4.13,1.88,6.73-.91a16.2,16.2,0,0,0,3.05-4.95c5-12.19,12.54-23.94,22.79-35.22a1.69,1.69,0,0,1,2.79.46c4.59,10.15,7.91,20.82,7.6,33a11.18,11.18,0,0,0,1.64,6.26c1.69,2.68,3.82,3.37,6.31,2.4a8.12,8.12,0,0,0,4.89-8.81c-1.92-13.38-9.3-30.87-13.06-39.18a9.8,9.8,0,0,0,.26-8.52c8.11-13.15,11.36-29.51,12.72-45.91q.17-2,.3-4c.47-7.08.63-14.11.73-20.85a6,6,0,0,0-3.19-5.43,15.49,15.49,0,0,0-1.68-.74,8.51,8.51,0,0,0-11.29,8.71c.41,5.57.59,11.47.52,17.47q0,1.7-.07,3.41c-.38,13.84-2.11,28-5.42,39.47a.75.75,0,0,1-1.46-.1,189.53,189.53,0,0,0-9.4-37.8,37,37,0,0,0-14,4.49c6.25,13.68,11.53,28.3,15.33,39.49a9.76,9.76,0,0,0-1.37,8.92c-11.39,12-20.49,25.38-26.2,40.29A7.71,7.71,0,0,0,614.08,373.07Z" transform="translate(-19.39 5.29)"/><path class="cls-1" d="M436.71,365.36c5.77,4.13,11.66,8,17.33,11.61a6,6,0,0,0,6.29.15,15.49,15.49,0,0,0,1.51-1,8.51,8.51,0,0,0-1.44-14.19c-4.95-2.58-10.06-5.55-15.11-8.77A43.25,43.25,0,0,0,436.71,365.36Z" transform="translate(-19.39 5.29)"/><path class="cls-1" d="M480.46,323.89a137.63,137.63,0,0,1-16.73-.43c-3.44-.28-6.94-.65-10.47-1.1-14.92-1.9-30.13-5.12-41.63-7.8a9.76,9.76,0,0,0-6.85-5.87c-4.16-16-10.76-30.79-20.41-43.51a7.71,7.71,0,0,0-7.63-3c-2.71.57-3.78,2.51-2.78,6.2a16.2,16.2,0,0,0,2.59,5.2c7.73,10.67,13.73,23.28,17.9,37.94a1.69,1.69,0,0,1-1.86,2.13c-11-1.45-21.86-4.26-32-10.93a11.18,11.18,0,0,0-6.18-1.9c-3.17,0-4.88,1.47-5.37,4.1a8.12,8.12,0,0,0,4.91,8.8c12.38,5.43,31.13,8.38,40.18,9.56a9.8,9.8,0,0,0,7.1,4.72c6.9,13.83,19.08,25.21,32.29,35a44.43,44.43,0,0,1,9-11.73c-11.56-7.63-22.64-16.53-30.67-25.42a.75.75,0,0,1,.86-1.18,189.53,189.53,0,0,0,37.07,11.95c3.45.71,6.89,1.29,10.29,1.75a105.37,105.37,0,0,0,18.44,1,11.12,11.12,0,0,0,9.3-5.66,5.64,5.64,0,0,0-.08-6.29A8.1,8.1,0,0,0,480.46,323.89Z" transform="translate(-19.39 5.29)"/><path class="cls-2" d="M433.47,363q1.61,1.19,3.24,2.36a43.25,43.25,0,0,1,8.59-12.24q-1.43-.91-2.86-1.85A44.43,44.43,0,0,0,433.47,363Z" transform="translate(-19.39 5.29)"/><path class="cls-1" d="M691.37,436a5.94,5.94,0,0,0,4.72-1.94,3.52,3.52,0,0,0,.71-3.91,5,5,0,0,0-5-3,26.38,26.38,0,0,1-5.52-.14,59.85,59.85,0,0,1-.73,8.17A28.09,28.09,0,0,0,691.37,436Z" transform="translate(-19.39 5.29)"/><path class="cls-1" d="M681.52,433.82a52.36,52.36,0,0,0,.59-7.73,38.35,38.35,0,0,1-7.85-3.3v0a6.71,6.71,0,0,0-.09-2,34.28,34.28,0,0,1,19-.22,4.58,4.58,0,0,0,3.86-.6,3.21,3.21,0,0,0,1.43-3.24,5.11,5.11,0,0,0-4-4.26c-9-2-16.78-.72-23.36,3.95a6.66,6.66,0,0,0-5.38-.75c-12.89-10.87-30.42-16.32-50.84-18.42a7.29,7.29,0,0,0-7.59,4.51,5.41,5.41,0,0,0,1.42,6.06,9.7,9.7,0,0,0,6.37,2.89c16.84,1.15,31.72,3.52,41,9.39a.68.68,0,0,1-.16,1.22c-12.32,4.08-27.19,3.1-43,.18a6.73,6.73,0,0,0-7.17,3.3,6.4,6.4,0,0,0-.72,3.77,7.63,7.63,0,0,0,6.49,6.68c16.88,2.57,34.72.33,53.56-6.92a6.68,6.68,0,0,0,5.82-.35A53.13,53.13,0,0,0,681.52,433.82Z" transform="translate(-19.39 5.29)"/><path class="cls-2" d="M686.26,426.94a28.49,28.49,0,0,1-4.15-.86,52.36,52.36,0,0,1-.59,7.73,32.93,32.93,0,0,0,4,1.3A59.85,59.85,0,0,0,686.26,426.94Z" transform="translate(-19.39 5.29)"/><path class="cls-1" d="M592,61.58c-1.16,3.66-2.16,7.33-3.08,10.86a3.22,3.22,0,0,0,1,3.26,8.38,8.38,0,0,0,.79.6,4.6,4.6,0,0,0,7.06-3.11c.5-3,1.18-6.1,2-9.24A23.4,23.4,0,0,0,592,61.58Z" transform="translate(-19.39 5.29)"/><path class="cls-1" d="M620.63,77.17a74.45,74.45,0,0,1-2.57-8.68c-.43-1.82-.82-3.68-1.18-5.57-1.51-8-2.39-16.36-2.93-22.73a5.28,5.28,0,0,0,1.88-4.51,66.12,66.12,0,0,0,19-17.76,4.17,4.17,0,0,0,.27-4.43c-.74-1.3-1.92-1.53-3.65-.4a8.76,8.76,0,0,0-2.24,2.2,64.89,64.89,0,0,1-16.54,15.54.92.92,0,0,1-1.41-.6c-1.09-5.92-1.45-12,.28-18.3a6,6,0,0,0-.05-3.5,2.6,2.6,0,0,0-3-2.08,4.4,4.4,0,0,0-3.71,4c-.73,7.28.88,17.42,1.78,22.27a5.3,5.3,0,0,0-1.24,4.44c-6,5.85-9.79,14-12.64,22.46a24,24,0,0,1,7.53,2.66,89.18,89.18,0,0,1,8-20,.4.4,0,0,1,.75.24,102.52,102.52,0,0,0,0,21.07c.21,1.9.48,3.76.82,5.59a57,57,0,0,0,2.58,9.65,6,6,0,0,0,4.46,3.84A3,3,0,0,0,620,81.45,4.38,4.38,0,0,0,620.63,77.17Z" transform="translate(-19.39 5.29)"/><path class="cls-2" d="M592.67,59.52q-.35,1-.67,2.06A23.4,23.4,0,0,1,599.72,64q.23-.89.48-1.78A24,24,0,0,0,592.67,59.52Z" transform="translate(-19.39 5.29)"/><path class="cls-1" d="M641.6,207.61a137.63,137.63,0,0,1,.35-16.73A62.88,62.88,0,0,1,627,187.22a105.38,105.38,0,0,0-.87,18.44,11.12,11.12,0,0,0,5.71,9.27,5.64,5.64,0,0,0,6.29-.12A8.1,8.1,0,0,0,641.6,207.61Z" transform="translate(-19.39 5.29)"/><path class="cls-2" d="M643,180.41a37,37,0,0,1-14.28-3.49c-.7,3.46-1.26,6.9-1.69,10.3a62.88,62.88,0,0,0,14.92,3.66C642.21,187.44,642.56,183.93,643,180.41Z" transform="translate(-19.39 5.29)"/><path class="cls-1" d="M702.78,103.56c-.58-2.71-2.53-3.77-6.21-2.74a16.2,16.2,0,0,0-5.19,2.62c-10.63,7.78-23.21,13.85-37.84,18.1a1.69,1.69,0,0,1-2.14-1.85c1.4-11,4.15-21.88,10.76-32.08A11.18,11.18,0,0,0,664,81.41c0-3.17-1.5-4.87-4.12-5.35a8.12,8.12,0,0,0-8.77,5c-5.36,12.41-8.22,31.18-9.35,40.22a9.8,9.8,0,0,0-4.68,7.12c-13.79,7-25.11,19.21-34.85,32.47q-1.19,1.62-2.34,3.25c-4.1,5.79-7.92,11.7-11.52,17.39a6,6,0,0,0-.12,6.3,15.49,15.49,0,0,0,1,1.51,8.51,8.51,0,0,0,14.18-1.51c2.56-5,5.5-10.09,8.69-15.16q.91-1.44,1.84-2.87c7.57-11.6,16.42-22.72,25.26-30.8a.75.75,0,0,1,1.19.85,189.53,189.53,0,0,0-11.75,37.13A37,37,0,0,0,643,180.41c1.82-14.93,5-30.15,7.59-41.67a9.76,9.76,0,0,0,5.83-6.89c16-4.24,30.74-10.92,43.4-20.64A7.71,7.71,0,0,0,702.78,103.56Z" transform="translate(-19.39 5.29)"/><path class="cls-1" d="M753.06,114.75c5.77,4.13,11.66,8,17.33,11.61a6,6,0,0,0,6.29.15,15.49,15.49,0,0,0,1.51-1,8.51,8.51,0,0,0-1.44-14.19c-4.95-2.58-10.06-5.55-15.11-8.77A43.25,43.25,0,0,0,753.06,114.75Z" transform="translate(-19.39 5.29)"/><path class="cls-1" d="M796.81,73.28a137.63,137.63,0,0,1-16.73-.43c-3.44-.28-6.94-.65-10.47-1.1-14.92-1.9-30.13-5.12-41.63-7.8a9.76,9.76,0,0,0-6.85-5.87c-4.16-16-10.76-30.79-20.41-43.51a7.71,7.71,0,0,0-7.63-3c-2.71.57-3.78,2.51-2.78,6.2A16.2,16.2,0,0,0,692.9,23c7.73,10.67,13.73,23.28,17.9,37.94A1.69,1.69,0,0,1,708.94,63c-11-1.45-21.86-4.26-32-10.93a11.18,11.18,0,0,0-6.18-1.9c-3.17,0-4.88,1.47-5.37,4.1a8.12,8.12,0,0,0,4.91,8.8c12.38,5.43,31.13,8.38,40.18,9.56a9.8,9.8,0,0,0,7.1,4.72c6.9,13.83,19.08,25.21,32.29,35a44.43,44.43,0,0,1,9-11.73C747.23,93,736.15,84.12,728.12,75.24a.75.75,0,0,1,.86-1.18A189.53,189.53,0,0,0,766,86c3.45.71,6.89,1.29,10.29,1.75a105.37,105.37,0,0,0,18.44,1,11.12,11.12,0,0,0,9.3-5.66,5.64,5.64,0,0,0-.08-6.29A8.1,8.1,0,0,0,796.81,73.28Z" transform="translate(-19.39 5.29)"/><path class="cls-2" d="M749.83,112.39q1.61,1.19,3.24,2.36a43.25,43.25,0,0,1,8.59-12.24q-1.43-.91-2.86-1.85A44.43,44.43,0,0,0,749.83,112.39Z" transform="translate(-19.39 5.29)"/><path class="cls-1" d="M774.71,163a5.94,5.94,0,0,0,4.72-1.94,3.52,3.52,0,0,0,.71-3.91,5,5,0,0,0-5-3,26.38,26.38,0,0,1-5.52-.14,59.85,59.85,0,0,1-.73,8.17A28.09,28.09,0,0,0,774.71,163Z" transform="translate(-19.39 5.29)"/><path class="cls-1" d="M764.87,160.89a52.36,52.36,0,0,0,.59-7.73,38.35,38.35,0,0,1-7.85-3.3v0a6.71,6.71,0,0,0-.09-2,34.28,34.28,0,0,1,19-.22,4.58,4.58,0,0,0,3.86-.6,3.21,3.21,0,0,0,1.43-3.24,5.11,5.11,0,0,0-4-4.26c-9-2-16.78-.72-23.36,3.95a6.66,6.66,0,0,0-5.38-.75c-12.89-10.87-30.42-16.32-50.84-18.42a7.29,7.29,0,0,0-7.59,4.51,5.41,5.41,0,0,0,1.42,6.06,9.7,9.7,0,0,0,6.37,2.89c16.84,1.15,31.72,3.52,41,9.39a.68.68,0,0,1-.16,1.22c-12.32,4.08-27.19,3.1-43,.18a6.73,6.73,0,0,0-7.17,3.3,6.4,6.4,0,0,0-.72,3.77,7.63,7.63,0,0,0,6.49,6.68c16.88,2.57,34.72.33,53.56-6.92a6.68,6.68,0,0,0,5.82-.35A53.13,53.13,0,0,0,764.87,160.89Z" transform="translate(-19.39 5.29)"/><path class="cls-2" d="M769.6,154a28.49,28.49,0,0,1-4.15-.86,52.36,52.36,0,0,1-.59,7.73,32.93,32.93,0,0,0,4,1.3A59.85,59.85,0,0,0,769.6,154Z" transform="translate(-19.39 5.29)"/><path class="cls-1" d="M130.24,523.42c5.75,8,9.44,17.87,11.88,28.91a52,52,0,0,1,14-3.37q-6.84-19.34-21.85-37.79a7.89,7.89,0,0,0-1.31-5.67c6.62-11.88,8.1-25.85,4.06-42.09a4.27,4.27,0,0,0-2.19-2.81l-.17-.08a6.07,6.07,0,0,0-8.44,7.11q4.86,18-.68,32a1.39,1.39,0,0,1-2.33.39c-6.71-7.4-11.53-17.89-14.33-31.72a5.62,5.62,0,0,0-4.82-4.46l-.16,0a6.46,6.46,0,0,0-6.75,8.23c4.64,16.41,11.76,28.48,21.62,35.81a7.9,7.9,0,0,0,1.07,6.54c-7,18.5-7.28,39.64-3.64,62.34a8.69,8.69,0,0,0,11.36,6.89l.16-.06a7.57,7.57,0,0,0,4.62-9.05c-4.75-18-6.65-35-4.33-50.61A1.25,1.25,0,0,1,130.24,523.42Z" transform="translate(-19.39 5.29)"/><path class="cls-1" d="M157.73,553.95a59.15,59.15,0,0,0-14.56,3.63c.81,4.45,1.45,9.05,2,13.77a9.19,9.19,0,0,0,11.93,7.85l.15-.05a6.46,6.46,0,0,0,4.2-6.78A100.91,100.91,0,0,0,157.73,553.95Z" transform="translate(-19.39 5.29)"/><path class="cls-2" d="M156.1,549a52,52,0,0,0-14,3.37q.57,2.58,1.05,5.24a59.15,59.15,0,0,1,14.56-3.63Q157,551.45,156.1,549Z" transform="translate(-19.39 5.29)"/><path class="cls-1" d="M61,470q-1.94-6.62-4.65-13.43a7.55,7.55,0,0,0-7.78-4.82,5.61,5.61,0,0,0-4.9,4.2,10,10,0,0,0,.38,7.23c1.45,3.33,2.82,6.61,4.06,9.82C52.43,473.41,56.73,472.18,61,470Z" transform="translate(-19.39 5.29)"/><path class="cls-1" d="M80.44,537c-2.48-9.19-7.36-15.78-14.79-19.6a6.91,6.91,0,0,0-1.89-5.31c2.5-11.13,1.94-23-.93-35.36a25,25,0,0,1-12.19,3c3.24,9.57,5.06,18.3,4.44,25.59a.71.71,0,0,1-1.2.44c-9.64-9.37-15.84-23.52-20.73-39.5a7,7,0,0,0-6.46-5,6.63,6.63,0,0,0-3.81,1.14,7.91,7.91,0,0,0-3,9.16c5.7,16.75,16.29,32.08,32,45.95a6.92,6.92,0,0,0,3.1,5.18c-1,7.93-.95,15.65,2.4,22.71a6.15,6.15,0,0,0,4,3.41,3.64,3.64,0,0,0,3.94-1.22,5.16,5.16,0,0,0,.38-6.06c-3.54-5.66-4.55-11.8-4.42-18.16l0,0a7,7,0,0,0,1.81-1.05,35.52,35.52,0,0,1,9.3,17.39,4.74,4.74,0,0,0,2.4,3.26,3.33,3.33,0,0,0,3.66-.24A5.29,5.29,0,0,0,80.44,537Z" transform="translate(-19.39 5.29)"/><path class="cls-2" d="M62.82,476.77Q62,473.42,61,470c-4.32,2.17-8.61,3.39-12.88,3q1.33,3.44,2.46,6.77A25,25,0,0,0,62.82,476.77Z" transform="translate(-19.39 5.29)"/><path class="cls-1" d="M225.65,472.27a5,5,0,0,0-.26-4.32,3,3,0,0,0-2.95-1.65,4.22,4.22,0,0,0-3.81,3.2A22.38,22.38,0,0,1,217,473.9a50.79,50.79,0,0,1,6.36,2.83A23.84,23.84,0,0,0,225.65,472.27Z" transform="translate(-19.39 5.29)"/><path class="cls-1" d="M221.23,479.59a44.44,44.44,0,0,0-6-2.59,32.54,32.54,0,0,1-4.81,5.4l0,0a5.7,5.7,0,0,0-1.65-.48,29.09,29.09,0,0,1,5-15.34,3.88,3.88,0,0,0,.58-3.27,2.72,2.72,0,0,0-2.21-2,4.34,4.34,0,0,0-4.52,2.05c-4,6.66-5.19,13.28-3.25,19.85a5.65,5.65,0,0,0-2.08,4.11C190,494.63,180.8,507.21,173.52,523a6.18,6.18,0,0,0,1.54,7.33,4.59,4.59,0,0,0,5.26.53,8.23,8.23,0,0,0,4.07-4.32c5.55-13.2,11.53-24.51,18.79-30.34a.58.58,0,0,1,.94.46c-.1,11-5,22.69-11.68,34.61a5.71,5.71,0,0,0,.68,6.66,5.43,5.43,0,0,0,2.83,1.61,6.47,6.47,0,0,0,7.14-3.38c6.7-12.85,9.79-27.79,9.15-44.91a5.67,5.67,0,0,0,1.32-4.77A45.09,45.09,0,0,0,221.23,479.59Z" transform="translate(-19.39 5.29)"/><path class="cls-2" d="M217,473.9a24.18,24.18,0,0,1-1.83,3.09,44.44,44.44,0,0,1,6,2.59,28,28,0,0,0,2.14-2.86A50.79,50.79,0,0,0,217,473.9Z" transform="translate(-19.39 5.29)"/><path class="cls-1" d="M79.66,667.34A116.8,116.8,0,0,1,72.56,655a53.36,53.36,0,0,1-12.44,3.9,89.43,89.43,0,0,0,7.48,13.77,9.44,9.44,0,0,0,8.22,4.22,4.78,4.78,0,0,0,4.51-2.85A6.88,6.88,0,0,0,79.66,667.34Z" transform="translate(-19.39 5.29)"/><path class="cls-2" d="M68.71,647a31.38,31.38,0,0,1-11.9,3.74c1,2.82,2.12,5.56,3.3,8.22A53.36,53.36,0,0,0,72.56,655C71.23,652.43,69.95,649.73,68.71,647Z" transform="translate(-19.39 5.29)"/><path class="cls-1" d="M78.31,564.91c-1.61-1.71-3.49-1.62-5.71.74A13.75,13.75,0,0,0,70,569.84a101.79,101.79,0,0,1-19.51,29.78,1.44,1.44,0,0,1-2.37-.4c-3.84-8.63-6.61-17.7-6.3-28a9.49,9.49,0,0,0-1.36-5.32C39,563.6,37.22,563,35.1,563.81a6.89,6.89,0,0,0-4.19,7.45c1.57,11.36,7.74,26.24,10.9,33.31a8.32,8.32,0,0,0-.27,7.23c-6.95,11.12-9.78,25-11,38.9q-.15,1.69-.27,3.39c-.43,6-.6,12-.71,17.69a5.06,5.06,0,0,0,2.68,4.62,13.15,13.15,0,0,0,1.42.63,7.22,7.22,0,0,0,9.63-7.33c-.33-4.73-.44-9.74-.35-14.83q0-1.44.07-2.89c.39-11.75,1.92-23.71,4.79-33.46a.63.63,0,0,1,1.24.1,160.84,160.84,0,0,0,7.8,32.12A31.38,31.38,0,0,0,68.71,647c-5.24-11.64-9.65-24.07-12.82-33.58a8.28,8.28,0,0,0,1.2-7.56c9.72-10.09,17.51-21.44,22.43-34.06A6.54,6.54,0,0,0,78.31,564.91Z" transform="translate(-19.39 5.29)"/><path class="cls-1" d="M206.4,568.18c-4.87-3.53-9.86-6.83-14.65-9.94a5.06,5.06,0,0,0-5.34-.16,13.14,13.14,0,0,0-1.29.88,7.22,7.22,0,0,0,1.15,12c4.19,2.22,8.51,4.76,12.78,7.52A36.71,36.71,0,0,0,206.4,568.18Z" transform="translate(-19.39 5.29)"/><path class="cls-1" d="M169.08,603.17a116.79,116.79,0,0,1,14.2.45c2.92.25,5.89.59,8.88,1,12.65,1.68,25.54,4.49,35.29,6.82a8.28,8.28,0,0,0,5.79,5c3.45,13.58,9,26.18,17.11,37a6.54,6.54,0,0,0,6.46,2.59c2.3-.47,3.22-2.12,2.39-5.24a13.75,13.75,0,0,0-2.18-4.43,101.79,101.79,0,0,1-15-32.28,1.44,1.44,0,0,1,1.59-1.8c9.36,1.29,18.53,3.72,27.12,9.43a9.49,9.49,0,0,0,5.24,1.64c2.69,0,4.15-1.22,4.58-3.45a6.89,6.89,0,0,0-4.12-7.49c-10.48-4.66-26.38-7.26-34-8.31a8.32,8.32,0,0,0-6-4c-5.79-11.77-16.07-21.49-27.24-29.87a37.7,37.7,0,0,1-7.66,9.91c9.77,6.53,19.13,14.14,25.91,21.72a.63.63,0,0,1-.73,1,160.84,160.84,0,0,0-31.4-10.31c-2.93-.62-5.84-1.13-8.73-1.53a89.42,89.42,0,0,0-15.64-.91,9.44,9.44,0,0,0-7.92,4.76,4.78,4.78,0,0,0,0,5.34A6.88,6.88,0,0,0,169.08,603.17Z" transform="translate(-19.39 5.29)"/><path class="cls-2" d="M209.14,570.2q-1.36-1-2.74-2a36.71,36.71,0,0,1-7.35,10.34l2.42,1.59A37.7,37.7,0,0,0,209.14,570.2Z" transform="translate(-19.39 5.29)"/><path class="cls-1" d="M111,624.29a5,5,0,0,0-4,1.62,3,3,0,0,0-.62,3.32,4.22,4.22,0,0,0,4.25,2.59,22.38,22.38,0,0,1,4.68.15A50.79,50.79,0,0,1,116,625,23.84,23.84,0,0,0,111,624.29Z" transform="translate(-19.39 5.29)"/><path class="cls-1" d="M119.35,626.16a44.44,44.44,0,0,0-.54,6.56,32.54,32.54,0,0,1,6.65,2.84v0a5.7,5.7,0,0,0,.07,1.71,29.09,29.09,0,0,1-16.15.1,3.88,3.88,0,0,0-3.28.49,2.72,2.72,0,0,0-1.23,2.74,4.34,4.34,0,0,0,3.38,3.64c7.6,1.71,14.24.69,19.85-3.24a5.65,5.65,0,0,0,4.56.66c10.89,9.28,25.74,14,43.05,15.87a6.18,6.18,0,0,0,6.46-3.79,4.59,4.59,0,0,0-1.17-5.15,8.23,8.23,0,0,0-5.39-2.48c-14.28-1.06-26.9-3.13-34.74-8.16a.58.58,0,0,1,.14-1c10.47-3.41,23.09-2.5,36.53.05a5.71,5.71,0,0,0,6.1-2.77,5.43,5.43,0,0,0,.63-3.19,6.47,6.47,0,0,0-5.47-5.7c-14.31-2.26-29.46-.44-45.48,5.62a5.67,5.67,0,0,0-4.94.27A45.09,45.09,0,0,0,119.35,626.16Z" transform="translate(-19.39 5.29)"/><path class="cls-2" d="M115.3,632a24.18,24.18,0,0,1,3.52.75,44.44,44.44,0,0,1,.54-6.56A28,28,0,0,0,116,625,50.79,50.79,0,0,0,115.3,632Z" transform="translate(-19.39 5.29)"/><path class="cls-1" d="M419.36,633.92c-6.83-9.37-11.24-21-14.19-34A61.26,61.26,0,0,1,388.72,604q8.18,22.75,26,44.39a9.3,9.3,0,0,0,1.58,6.67c-7.72,14-9.37,30.52-4.5,49.62a5,5,0,0,0,2.6,3.29l.2.09a7.15,7.15,0,0,0,9.89-8.44q-5.85-21.18.59-37.74a1.64,1.64,0,0,1,2.74-.48c8,8.67,13.71,21,17.1,37.28a6.62,6.62,0,0,0,5.7,5.22l.19,0a7.61,7.61,0,0,0,7.9-9.75c-5.57-19.3-14-33.48-25.71-42.06a9.31,9.31,0,0,0-1.3-7.7c8.11-21.85,8.32-46.76,3.87-73.48a10.24,10.24,0,0,0-13.44-8l-.18.07a8.91,8.91,0,0,0-5.38,10.7c5.72,21.18,8.06,41.23,5.44,59.61A1.47,1.47,0,0,1,419.36,633.92Z" transform="translate(-19.39 5.29)"/><path class="cls-1" d="M386.77,598.13a69.7,69.7,0,0,0,17.13-4.37c-1-5.23-1.76-10.66-2.4-16.22a10.82,10.82,0,0,0-14.11-9.17l-.18.06a7.61,7.61,0,0,0-4.9,8A118.91,118.91,0,0,0,386.77,598.13Z" transform="translate(-19.39 5.29)"/><path class="cls-2" d="M388.72,604a61.26,61.26,0,0,0,16.46-4.07q-.69-3-1.28-6.17a69.7,69.7,0,0,1-17.13,4.37Q387.66,601.08,388.72,604Z" transform="translate(-19.39 5.29)"/><path class="cls-1" d="M639.25,725.4q2.33,7.79,5.56,15.79a8.9,8.9,0,0,0,9.2,5.63c2.8-.33,4.73-2,5.74-5a11.84,11.84,0,0,0-.5-8.52c-1.73-3.92-3.36-7.77-4.85-11.55C649.38,721.34,644.32,722.82,639.25,725.4Z" transform="translate(-19.39 5.29)"/><path class="cls-1" d="M616,646.56c3,10.81,8.77,18.54,17.56,23a8.14,8.14,0,0,0,2.26,6.24c-2.87,13.13-2.14,27.08,1.33,41.66,4.74-2.38,9.52-3.82,14.35-3.63-3.88-11.26-6.08-21.53-5.4-30.13a.83.83,0,0,1,1.41-.52c11.42,11,18.82,27.61,24.69,46.41a8.22,8.22,0,0,0,7.65,5.87,7.81,7.81,0,0,0,4.48-1.37,9.32,9.32,0,0,0,3.52-10.81c-6.83-19.7-19.4-37.7-38-53.93a8.15,8.15,0,0,0-3.69-6.08c1.13-9.36,1-18.45-3-26.74a7.25,7.25,0,0,0-4.78-4,4.29,4.29,0,0,0-4.63,1.46,6.08,6.08,0,0,0-.41,7.15c4.21,6.64,5.44,13.87,5.32,21.37l-.05,0a8.2,8.2,0,0,0-2.13,1.25,41.86,41.86,0,0,1-11.07-20.43,5.59,5.59,0,0,0-2.85-3.83,3.92,3.92,0,0,0-4.32.3A6.24,6.24,0,0,0,616,646.56Z" transform="translate(-19.39 5.29)"/><path class="cls-2" d="M637.11,717.45q.94,3.95,2.14,8c5.07-2.59,10.13-4.06,15.16-3.63q-1.59-4-2.95-8C646.63,713.63,641.85,715.07,637.11,717.45Z" transform="translate(-19.39 5.29)"/><path class="cls-1" d="M307.27,694.83a5.94,5.94,0,0,0,.33,5.09,3.52,3.52,0,0,0,3.48,1.92,5,5,0,0,0,4.47-3.8,26.38,26.38,0,0,1,1.89-5.18,59.85,59.85,0,0,1-7.51-3.29A28.09,28.09,0,0,0,307.27,694.83Z" transform="translate(-19.39 5.29)"/><path class="cls-1" d="M312.44,686.17a52.36,52.36,0,0,0,7.14,3,38.35,38.35,0,0,1,5.63-6.39l0,0a6.71,6.71,0,0,0,1.94.55,34.28,34.28,0,0,1-5.85,18.11,4.58,4.58,0,0,0-.66,3.85,3.21,3.21,0,0,0,2.62,2.39,5.11,5.11,0,0,0,5.32-2.45c4.72-7.88,6-15.68,3.69-23.41a6.66,6.66,0,0,0,2.42-4.86c14.4-8.76,25.16-23.64,33.64-42.33a7.29,7.29,0,0,0-1.86-8.63,5.41,5.41,0,0,0-6.2-.58,9.7,9.7,0,0,0-4.76,5.12c-6.45,15.6-13.43,29-21.94,35.87a.68.68,0,0,1-1.11-.54c0-13,5.71-26.76,13.53-40.87a6.73,6.73,0,0,0-.85-7.85,6.4,6.4,0,0,0-3.34-1.88,7.63,7.63,0,0,0-8.39,4c-7.81,15.18-11.36,32.81-10.48,53a6.68,6.68,0,0,0-1.52,5.63A53.13,53.13,0,0,0,312.44,686.17Z" transform="translate(-19.39 5.29)"/><path class="cls-2" d="M317.45,692.85a28.49,28.49,0,0,1,2.13-3.66,52.36,52.36,0,0,1-7.14-3,32.93,32.93,0,0,0-2.5,3.39A59.85,59.85,0,0,0,317.45,692.85Z" transform="translate(-19.39 5.29)"/><path class="cls-1" d="M478,464a137.63,137.63,0,0,1,8.46,14.44,62.88,62.88,0,0,1,14.63-4.68,105.38,105.38,0,0,0-8.9-16.18,11.12,11.12,0,0,0-9.71-4.92,5.64,5.64,0,0,0-5.3,3.39A8.1,8.1,0,0,0,478,464Z" transform="translate(-19.39 5.29)"/><path class="cls-2" d="M491,487.92a37,37,0,0,1,14-4.49c-1.21-3.31-2.54-6.54-3.95-9.67a62.88,62.88,0,0,0-14.63,4.68C488,481.51,489.57,484.69,491,487.92Z" transform="translate(-19.39 5.29)"/><path class="cls-1" d="M480.28,584.69c1.91,2,4.13,1.88,6.73-.91a16.2,16.2,0,0,0,3.05-4.95c5-12.19,12.54-23.94,22.79-35.22a1.69,1.69,0,0,1,2.79.46c4.59,10.15,7.91,20.82,7.6,33a11.18,11.18,0,0,0,1.64,6.26c1.69,2.68,3.82,3.37,6.31,2.4a8.12,8.12,0,0,0,4.89-8.81c-1.92-13.38-9.3-30.87-13.06-39.18a9.8,9.8,0,0,0,.26-8.52c8.11-13.15,11.36-29.51,12.72-45.91q.17-2,.3-4c.47-7.08.63-14.11.73-20.85a6,6,0,0,0-3.19-5.43,15.49,15.49,0,0,0-1.68-.74A8.51,8.51,0,0,0,520.87,461c.41,5.57.59,11.47.52,17.47q0,1.7-.07,3.41c-.38,13.84-2.11,28-5.42,39.47a.75.75,0,0,1-1.46-.1,189.53,189.53,0,0,0-9.4-37.8,37,37,0,0,0-14,4.49c6.25,13.68,11.53,28.3,15.33,39.49a9.76,9.76,0,0,0-1.37,8.92c-11.39,12-20.49,25.38-26.2,40.29A7.71,7.71,0,0,0,480.28,584.69Z" transform="translate(-19.39 5.29)"/><path class="cls-1" d="M329.32,581.68c5.77,4.13,11.66,8,17.33,11.61a6,6,0,0,0,6.29.15,15.49,15.49,0,0,0,1.51-1A8.51,8.51,0,0,0,353,578.22c-4.95-2.58-10.06-5.55-15.11-8.77A43.25,43.25,0,0,0,329.32,581.68Z" transform="translate(-19.39 5.29)"/><path class="cls-1" d="M373.07,540.21a137.63,137.63,0,0,1-16.73-.43c-3.44-.28-6.94-.65-10.47-1.1-14.92-1.9-30.13-5.12-41.63-7.8a9.76,9.76,0,0,0-6.85-5.87c-4.16-16-10.76-30.79-20.41-43.51a7.71,7.71,0,0,0-7.63-3c-2.71.57-3.78,2.51-2.78,6.2a16.2,16.2,0,0,0,2.59,5.2c7.73,10.67,13.73,23.28,17.9,37.94a1.69,1.69,0,0,1-1.86,2.13c-11-1.45-21.86-4.26-32-10.93a11.18,11.18,0,0,0-6.18-1.9c-3.17,0-4.88,1.47-5.37,4.1a8.12,8.12,0,0,0,4.91,8.8c12.38,5.43,31.13,8.38,40.18,9.56a9.8,9.8,0,0,0,7.1,4.72c6.9,13.83,19.08,25.21,32.29,35a44.43,44.43,0,0,1,9-11.73c-11.56-7.63-22.64-16.53-30.67-25.42a.75.75,0,0,1,.86-1.18,189.53,189.53,0,0,0,37.07,11.95c3.45.71,6.89,1.29,10.29,1.75a105.37,105.37,0,0,0,18.44,1,11.12,11.12,0,0,0,9.3-5.66,5.64,5.64,0,0,0-.08-6.29A8.1,8.1,0,0,0,373.07,540.21Z" transform="translate(-19.39 5.29)"/><path class="cls-2" d="M326.08,579.32q1.61,1.19,3.24,2.36a43.25,43.25,0,0,1,8.59-12.24q-1.43-.91-2.86-1.85A44.43,44.43,0,0,0,326.08,579.32Z" transform="translate(-19.39 5.29)"/><path class="cls-1" d="M441.36,514.93a5.94,5.94,0,0,0,4.72-1.94,3.52,3.52,0,0,0,.71-3.91,5,5,0,0,0-5-3,26.38,26.38,0,0,1-5.52-.14,59.85,59.85,0,0,1-.73,8.17A28.09,28.09,0,0,0,441.36,514.93Z" transform="translate(-19.39 5.29)"/><path class="cls-1" d="M431.51,512.79a52.36,52.36,0,0,0,.59-7.73,38.35,38.35,0,0,1-7.85-3.3v0a6.71,6.71,0,0,0-.09-2,34.28,34.28,0,0,1,19-.22,4.58,4.58,0,0,0,3.86-.6,3.21,3.21,0,0,0,1.43-3.24,5.11,5.11,0,0,0-4-4.26c-9-2-16.78-.72-23.36,3.95a6.66,6.66,0,0,0-5.38-.75c-12.89-10.87-30.42-16.32-50.84-18.42a7.29,7.29,0,0,0-7.59,4.51,5.41,5.41,0,0,0,1.42,6.06,9.7,9.7,0,0,0,6.37,2.89c16.84,1.15,31.72,3.52,41,9.39a.68.68,0,0,1-.16,1.22c-12.32,4.08-27.19,3.1-43,.18a6.73,6.73,0,0,0-7.17,3.3,6.4,6.4,0,0,0-.72,3.77,7.63,7.63,0,0,0,6.49,6.68c16.88,2.57,34.72.33,53.56-6.92a6.68,6.68,0,0,0,5.82-.35A53.13,53.13,0,0,0,431.51,512.79Z" transform="translate(-19.39 5.29)"/><path class="cls-2" d="M436.25,505.91a28.49,28.49,0,0,1-4.15-.86,52.36,52.36,0,0,1-.59,7.73,32.93,32.93,0,0,0,4,1.3A59.85,59.85,0,0,0,436.25,505.91Z" transform="translate(-19.39 5.29)"/><path class="cls-1" d="M227.67,738.82c5.75,8,9.44,17.87,11.88,28.91a52,52,0,0,1,14-3.37Q246.7,745,231.69,726.57a7.89,7.89,0,0,0-1.31-5.67c6.62-11.88,8.1-25.85,4.06-42.09a4.27,4.27,0,0,0-2.19-2.81l-.17-.08a6.07,6.07,0,0,0-8.44,7.11q4.86,18-.68,32a1.39,1.39,0,0,1-2.33.39c-6.71-7.4-11.53-17.89-14.33-31.72a5.62,5.62,0,0,0-4.82-4.46l-.16,0a6.46,6.46,0,0,0-6.75,8.23c4.64,16.41,11.76,28.48,21.62,35.81a7.9,7.9,0,0,0,1.07,6.54c-7,18.5-7.28,39.64-3.64,62.34A8.69,8.69,0,0,0,225,799.08l.16-.06a7.57,7.57,0,0,0,4.62-9.05c-4.75-18-6.65-35-4.33-50.61A1.25,1.25,0,0,1,227.67,738.82Z" transform="translate(-19.39 5.29)"/><path class="cls-1" d="M255.16,769.35A59.15,59.15,0,0,0,240.6,773c.81,4.45,1.45,9.05,2,13.77a9.19,9.19,0,0,0,11.93,7.85l.15-.05a6.46,6.46,0,0,0,4.2-6.78A100.91,100.91,0,0,0,255.16,769.35Z" transform="translate(-19.39 5.29)"/><path class="cls-2" d="M253.53,764.36a52,52,0,0,0-14,3.37q.57,2.58,1.05,5.24a59.15,59.15,0,0,1,14.56-3.63Q254.42,766.85,253.53,764.36Z" transform="translate(-19.39 5.29)"/><path class="cls-1" d="M158.48,685.42q-1.94-6.62-4.65-13.43a7.55,7.55,0,0,0-7.78-4.82,5.61,5.61,0,0,0-4.9,4.2,10,10,0,0,0,.38,7.23c1.45,3.33,2.82,6.61,4.06,9.82C149.86,688.81,154.16,687.59,158.48,685.42Z" transform="translate(-19.39 5.29)"/><path class="cls-1" d="M177.87,752.44c-2.48-9.19-7.36-15.78-14.79-19.6a6.91,6.91,0,0,0-1.89-5.31c2.5-11.13,1.94-23-.93-35.36a25,25,0,0,1-12.19,3c3.24,9.57,5.06,18.3,4.44,25.59a.71.71,0,0,1-1.2.44c-9.64-9.37-15.84-23.52-20.73-39.5a7,7,0,0,0-6.46-5,6.63,6.63,0,0,0-3.81,1.14,7.91,7.91,0,0,0-3,9.16c5.7,16.75,16.29,32.08,32,45.95a6.92,6.92,0,0,0,3.1,5.18c-1,7.93-.95,15.65,2.4,22.71a6.15,6.15,0,0,0,4,3.41,3.64,3.64,0,0,0,3.94-1.22,5.16,5.16,0,0,0,.38-6.06c-3.54-5.66-4.55-11.8-4.42-18.16l0,0a7,7,0,0,0,1.81-1.05,35.52,35.52,0,0,1,9.3,17.39,4.74,4.74,0,0,0,2.4,3.26,3.33,3.33,0,0,0,3.66-.24A5.29,5.29,0,0,0,177.87,752.44Z" transform="translate(-19.39 5.29)"/><path class="cls-2" d="M160.25,692.17q-.78-3.35-1.78-6.76c-4.32,2.17-8.61,3.39-12.88,3q1.33,3.44,2.46,6.77A25,25,0,0,0,160.25,692.17Z" transform="translate(-19.39 5.29)"/><path class="cls-1" d="M692.46,645.91a5.94,5.94,0,0,0-4.89,1.44,3.52,3.52,0,0,0-1.11,3.82,5,5,0,0,0,4.69,3.52,26.38,26.38,0,0,1,5.47.7,59.85,59.85,0,0,1,1.56-8.05A28.09,28.09,0,0,0,692.46,645.91Z" transform="translate(-19.39 5.29)"/><path class="cls-1" d="M702,649a52.36,52.36,0,0,0-1.37,7.63,38.35,38.35,0,0,1,7.47,4.08v0a6.71,6.71,0,0,0-.11,2,34.28,34.28,0,0,1-19-1.72,4.58,4.58,0,0,0-3.9.21,3.21,3.21,0,0,0-1.75,3.08A5.11,5.11,0,0,0,687,669c8.72,2.87,16.62,2.43,23.65-1.54a6.66,6.66,0,0,0,5.27,1.29c11.71,12.12,28.59,19.34,48.69,23.51a7.29,7.29,0,0,0,8-3.71,5.41,5.41,0,0,0-.79-6.18,9.7,9.7,0,0,0-6-3.52c-16.63-2.86-31.2-6.73-39.82-13.52a.68.68,0,0,1,.28-1.2c12.67-2.81,27.37-.31,42.84,4.21a6.73,6.73,0,0,0,7.47-2.55,6.4,6.4,0,0,0,1.1-3.67,7.63,7.63,0,0,0-5.77-7.3c-16.53-4.28-34.5-3.87-54,1.42A6.68,6.68,0,0,0,712,656,53.13,53.13,0,0,0,702,649Z" transform="translate(-19.39 5.29)"/><path class="cls-2" d="M696.62,655.4a28.49,28.49,0,0,1,4,1.27A52.36,52.36,0,0,1,702,649a32.93,32.93,0,0,0-3.85-1.7A59.85,59.85,0,0,0,696.62,655.4Z" transform="translate(-19.39 5.29)"/><path class="cls-1" d="M575,498.58c-1.16,3.66-2.16,7.33-3.08,10.86a3.22,3.22,0,0,0,1,3.26,8.38,8.38,0,0,0,.79.6,4.6,4.6,0,0,0,7.06-3.11c.5-3,1.18-6.1,2-9.24A23.4,23.4,0,0,0,575,498.58Z" transform="translate(-19.39 5.29)"/><path class="cls-1" d="M603.63,514.17a74.45,74.45,0,0,1-2.57-8.68c-.43-1.82-.82-3.68-1.18-5.57-1.51-8-2.39-16.36-2.93-22.73a5.28,5.28,0,0,0,1.88-4.51,66.12,66.12,0,0,0,19-17.76,4.17,4.17,0,0,0,.27-4.43c-.74-1.3-1.92-1.53-3.65-.4a8.76,8.76,0,0,0-2.24,2.2,64.89,64.89,0,0,1-16.54,15.54.92.92,0,0,1-1.41-.6c-1.09-5.92-1.45-12,.28-18.3a6,6,0,0,0-.05-3.5,2.6,2.6,0,0,0-3-2.08,4.4,4.4,0,0,0-3.71,4c-.73,7.28.88,17.42,1.78,22.27a5.3,5.3,0,0,0-1.24,4.44c-6,5.85-9.79,14-12.64,22.46a24,24,0,0,1,7.53,2.66,89.18,89.18,0,0,1,8-20,.4.4,0,0,1,.75.24,102.52,102.52,0,0,0,0,21.07c.21,1.9.48,3.76.82,5.59a57,57,0,0,0,2.58,9.65,6,6,0,0,0,4.46,3.84,3,3,0,0,0,3.22-1.09A4.38,4.38,0,0,0,603.63,514.17Z" transform="translate(-19.39 5.29)"/><path class="cls-2" d="M575.67,496.52q-.35,1-.67,2.06a23.4,23.4,0,0,1,7.73,2.38q.23-.89.48-1.78A24,24,0,0,0,575.67,496.52Z" transform="translate(-19.39 5.29)"/><path class="cls-1" d="M528.6,754.61a137.63,137.63,0,0,1,.35-16.73A62.88,62.88,0,0,1,514,734.22a105.38,105.38,0,0,0-.87,18.44,11.12,11.12,0,0,0,5.71,9.27,5.64,5.64,0,0,0,6.29-.12A8.1,8.1,0,0,0,528.6,754.61Z" transform="translate(-19.39 5.29)"/><path class="cls-2" d="M530,727.41a37,37,0,0,1-14.28-3.49c-.7,3.46-1.26,6.9-1.69,10.3a62.88,62.88,0,0,0,14.92,3.66C529.21,734.44,529.56,730.93,530,727.41Z" transform="translate(-19.39 5.29)"/><path class="cls-1" d="M589.78,650.56c-.58-2.71-2.53-3.77-6.21-2.74a16.2,16.2,0,0,0-5.19,2.62c-10.63,7.78-23.21,13.85-37.84,18.1a1.69,1.69,0,0,1-2.14-1.85c1.4-11,4.15-21.88,10.76-32.08a11.18,11.18,0,0,0,1.87-6.19c0-3.17-1.5-4.87-4.12-5.35a8.12,8.12,0,0,0-8.77,5c-5.36,12.41-8.22,31.18-9.35,40.22a9.8,9.8,0,0,0-4.68,7.12c-13.79,7-25.11,19.21-34.85,32.47q-1.19,1.62-2.34,3.25c-4.1,5.79-7.92,11.7-11.52,17.39a6,6,0,0,0-.12,6.3,15.49,15.49,0,0,0,1,1.51,8.51,8.51,0,0,0,14.18-1.51c2.56-5,5.5-10.09,8.69-15.16q.91-1.44,1.84-2.87c7.57-11.6,16.42-22.72,25.26-30.8a.75.75,0,0,1,1.19.85,189.53,189.53,0,0,0-11.75,37.13A37,37,0,0,0,530,727.41c1.82-14.93,5-30.15,7.59-41.67a9.76,9.76,0,0,0,5.83-6.89c16-4.24,30.74-10.92,43.4-20.64A7.71,7.71,0,0,0,589.78,650.56Z" transform="translate(-19.39 5.29)"/><path class="cls-1" d="M736.06,551.75c5.77,4.13,11.66,8,17.33,11.61a6,6,0,0,0,6.29.15,15.49,15.49,0,0,0,1.51-1,8.51,8.51,0,0,0-1.44-14.19c-4.95-2.58-10.06-5.55-15.11-8.77A43.25,43.25,0,0,0,736.06,551.75Z" transform="translate(-19.39 5.29)"/><path class="cls-1" d="M779.81,510.28a137.63,137.63,0,0,1-16.73-.43c-3.44-.28-6.94-.65-10.47-1.1-14.92-1.9-30.13-5.12-41.63-7.8a9.76,9.76,0,0,0-6.85-5.87c-4.16-16-10.76-30.79-20.41-43.51a7.71,7.71,0,0,0-7.63-3c-2.71.57-3.78,2.51-2.78,6.2a16.2,16.2,0,0,0,2.59,5.2c7.73,10.67,13.73,23.28,17.9,37.94a1.69,1.69,0,0,1-1.86,2.13c-11-1.45-21.86-4.26-32-10.93a11.18,11.18,0,0,0-6.18-1.9c-3.17,0-4.88,1.47-5.37,4.1a8.12,8.12,0,0,0,4.91,8.8c12.38,5.43,31.13,8.38,40.18,9.56a9.8,9.8,0,0,0,7.1,4.72c6.9,13.83,19.08,25.21,32.29,35a44.43,44.43,0,0,1,9-11.73c-11.56-7.63-22.64-16.53-30.67-25.42a.75.75,0,0,1,.86-1.18A189.53,189.53,0,0,0,749,523c3.45.71,6.89,1.29,10.29,1.75a105.37,105.37,0,0,0,18.44,1,11.12,11.12,0,0,0,9.3-5.66,5.64,5.64,0,0,0-.08-6.29A8.1,8.1,0,0,0,779.81,510.28Z" transform="translate(-19.39 5.29)"/><path class="cls-2" d="M732.83,549.39q1.61,1.19,3.24,2.36a43.25,43.25,0,0,1,8.59-12.24q-1.43-.91-2.86-1.85A44.43,44.43,0,0,0,732.83,549.39Z" transform="translate(-19.39 5.29)"/><path class="cls-1" d="M757.71,600a5.94,5.94,0,0,0,4.72-1.94,3.52,3.52,0,0,0,.71-3.91,5,5,0,0,0-5-3,26.38,26.38,0,0,1-5.52-.14,59.85,59.85,0,0,1-.73,8.17A28.09,28.09,0,0,0,757.71,600Z" transform="translate(-19.39 5.29)"/><path class="cls-1" d="M747.87,597.89a52.36,52.36,0,0,0,.59-7.73,38.35,38.35,0,0,1-7.85-3.3v0a6.71,6.71,0,0,0-.09-2,34.28,34.28,0,0,1,19-.22,4.58,4.58,0,0,0,3.86-.6,3.21,3.21,0,0,0,1.43-3.24,5.11,5.11,0,0,0-4-4.26c-9-2-16.78-.72-23.36,3.95a6.66,6.66,0,0,0-5.38-.75c-12.89-10.87-30.42-16.32-50.84-18.42a7.29,7.29,0,0,0-7.59,4.51,5.41,5.41,0,0,0,1.42,6.06,9.7,9.7,0,0,0,6.37,2.89c16.84,1.15,31.72,3.52,41,9.39a.68.68,0,0,1-.16,1.22c-12.32,4.08-27.19,3.1-43,.18a6.73,6.73,0,0,0-7.17,3.3,6.4,6.4,0,0,0-.72,3.77,7.63,7.63,0,0,0,6.49,6.68c16.88,2.57,34.72.33,53.56-6.92a6.68,6.68,0,0,0,5.82-.35A53.13,53.13,0,0,0,747.87,597.89Z" transform="translate(-19.39 5.29)"/><path class="cls-2" d="M752.6,591a28.49,28.49,0,0,1-4.15-.86,52.36,52.36,0,0,1-.59,7.73,32.93,32.93,0,0,0,4,1.3A59.85,59.85,0,0,0,752.6,591Z" transform="translate(-19.39 5.29)"/><path class="cls-1" d="M910.24,66.42c5.75,8,9.44,17.87,11.88,28.91a52,52,0,0,1,14-3.37q-6.84-19.34-21.85-37.79a7.89,7.89,0,0,0-1.31-5.67C919.56,36.62,921,22.64,917,6.41a4.27,4.27,0,0,0-2.19-2.81l-.17-.08a6.07,6.07,0,0,0-8.44,7.11q4.86,18-.68,32a1.39,1.39,0,0,1-2.33.39c-6.71-7.4-11.53-17.89-14.33-31.72a5.62,5.62,0,0,0-4.82-4.46l-.16,0a6.46,6.46,0,0,0-6.75,8.23c4.64,16.41,11.76,28.48,21.62,35.81a7.9,7.9,0,0,0,1.07,6.54c-7,18.5-7.28,39.64-3.64,62.34a8.69,8.69,0,0,0,11.36,6.89l.16-.06a7.57,7.57,0,0,0,4.62-9.05c-4.75-18-6.65-35-4.33-50.61A1.25,1.25,0,0,1,910.24,66.42Z" transform="translate(-19.39 5.29)"/><path class="cls-1" d="M937.73,96.95a59.15,59.15,0,0,0-14.56,3.63c.81,4.45,1.45,9.05,2,13.77a9.19,9.19,0,0,0,11.93,7.85l.15-.05a6.46,6.46,0,0,0,4.2-6.78A100.91,100.91,0,0,0,937.73,96.95Z" transform="translate(-19.39 5.29)"/><path class="cls-2" d="M936.1,92a52,52,0,0,0-14,3.37q.57,2.58,1.05,5.24a59.15,59.15,0,0,1,14.56-3.63Q937,94.45,936.1,92Z" transform="translate(-19.39 5.29)"/><path class="cls-1" d="M841,13Q839.11,6.39,836.4-.42a7.55,7.55,0,0,0-7.78-4.82,5.61,5.61,0,0,0-4.9,4.2,10,10,0,0,0,.38,7.23c1.45,3.33,2.82,6.61,4.06,9.82C832.43,16.41,836.73,15.18,841,13Z" transform="translate(-19.39 5.29)"/><path class="cls-1" d="M860.44,80c-2.48-9.19-7.36-15.78-14.79-19.6a6.91,6.91,0,0,0-1.89-5.31c2.5-11.13,1.94-23-.93-35.36a25,25,0,0,1-12.19,3c3.24,9.57,5.06,18.3,4.44,25.59a.71.71,0,0,1-1.2.44c-9.64-9.37-15.84-23.52-20.73-39.5a7,7,0,0,0-6.46-5,6.63,6.63,0,0,0-3.81,1.14,7.91,7.91,0,0,0-3,9.16c5.7,16.75,16.29,32.08,32,45.95a6.92,6.92,0,0,0,3.1,5.18c-1,7.93-.95,15.65,2.4,22.71a6.15,6.15,0,0,0,4,3.41,3.64,3.64,0,0,0,3.94-1.22,5.16,5.16,0,0,0,.38-6.06c-3.54-5.66-4.55-11.8-4.42-18.16l0,0a7,7,0,0,0,1.81-1.05,35.52,35.52,0,0,1,9.3,17.39,4.74,4.74,0,0,0,2.4,3.26,3.33,3.33,0,0,0,3.66-.24A5.29,5.29,0,0,0,860.44,80Z" transform="translate(-19.39 5.29)"/><path class="cls-2" d="M842.82,19.77Q842,16.42,841,13c-4.32,2.17-8.61,3.39-12.88,3q1.33,3.44,2.46,6.77A25,25,0,0,0,842.82,19.77Z" transform="translate(-19.39 5.29)"/><path class="cls-1" d="M1005.65,15.27a5,5,0,0,0-.26-4.32,3,3,0,0,0-2.95-1.65,4.22,4.22,0,0,0-3.81,3.2A22.38,22.38,0,0,1,997,16.9a50.79,50.79,0,0,1,6.36,2.83A23.84,23.84,0,0,0,1005.65,15.27Z" transform="translate(-19.39 5.29)"/><path class="cls-1" d="M1001.23,22.59a44.44,44.44,0,0,0-6-2.59,32.54,32.54,0,0,1-4.81,5.4l0,0a5.7,5.7,0,0,0-1.65-.48,29.09,29.09,0,0,1,5-15.34,3.88,3.88,0,0,0,.58-3.27,2.72,2.72,0,0,0-2.21-2,4.34,4.34,0,0,0-4.52,2.05c-4,6.66-5.19,13.28-3.25,19.85a5.65,5.65,0,0,0-2.08,4.11C970,37.63,960.8,50.21,953.52,66a6.18,6.18,0,0,0,1.54,7.33,4.59,4.59,0,0,0,5.26.53,8.23,8.23,0,0,0,4.07-4.32c5.55-13.2,11.53-24.51,18.79-30.34a.58.58,0,0,1,.94.46c-.1,11-5,22.69-11.68,34.61a5.71,5.71,0,0,0,.68,6.66,5.43,5.43,0,0,0,2.83,1.61,6.47,6.47,0,0,0,7.14-3.38c6.7-12.85,9.79-27.79,9.15-44.91a5.67,5.67,0,0,0,1.32-4.77A45.09,45.09,0,0,0,1001.23,22.59Z" transform="translate(-19.39 5.29)"/><path class="cls-2" d="M997,16.9A24.18,24.18,0,0,1,995.18,20a44.44,44.44,0,0,1,6,2.59,28,28,0,0,0,2.14-2.86A50.79,50.79,0,0,0,997,16.9Z" transform="translate(-19.39 5.29)"/><path class="cls-1" d="M859.66,210.34a116.8,116.8,0,0,1-7.11-12.3,53.36,53.36,0,0,1-12.44,3.9,89.43,89.43,0,0,0,7.48,13.77,9.44,9.44,0,0,0,8.22,4.22,4.78,4.78,0,0,0,4.51-2.85A6.88,6.88,0,0,0,859.66,210.34Z" transform="translate(-19.39 5.29)"/><path class="cls-2" d="M848.71,190a31.38,31.38,0,0,1-11.9,3.74c1,2.82,2.12,5.56,3.3,8.22a53.36,53.36,0,0,0,12.44-3.9C851.23,195.43,849.95,192.73,848.71,190Z" transform="translate(-19.39 5.29)"/><path class="cls-1" d="M858.31,107.91c-1.61-1.71-3.49-1.62-5.71.74a13.75,13.75,0,0,0-2.61,4.18,101.79,101.79,0,0,1-19.51,29.78,1.44,1.44,0,0,1-2.37-.4c-3.84-8.63-6.61-17.7-6.3-28a9.49,9.49,0,0,0-1.36-5.32c-1.42-2.28-3.23-2.88-5.35-2.07a6.89,6.89,0,0,0-4.19,7.45c1.57,11.36,7.74,26.24,10.9,33.31a8.32,8.32,0,0,0-.27,7.23c-6.95,11.12-9.78,25-11,38.9q-.15,1.69-.27,3.39c-.43,6-.6,12-.71,17.69a5.06,5.06,0,0,0,2.68,4.62,13.15,13.15,0,0,0,1.42.63,7.22,7.22,0,0,0,9.63-7.33c-.33-4.73-.44-9.74-.35-14.83q0-1.44.07-2.89c.39-11.75,1.92-23.71,4.79-33.46a.63.63,0,0,1,1.24.1,160.84,160.84,0,0,0,7.8,32.12,31.38,31.38,0,0,0,11.9-3.74c-5.24-11.64-9.65-24.07-12.82-33.58a8.28,8.28,0,0,0,1.2-7.56c9.72-10.09,17.51-21.44,22.43-34.06A6.54,6.54,0,0,0,858.31,107.91Z" transform="translate(-19.39 5.29)"/><path class="cls-1" d="M986.4,111.18c-4.87-3.53-9.86-6.83-14.65-9.94a5.06,5.06,0,0,0-5.34-.16,13.14,13.14,0,0,0-1.29.88,7.22,7.22,0,0,0,1.15,12c4.19,2.22,8.51,4.76,12.78,7.52A36.71,36.71,0,0,0,986.4,111.18Z" transform="translate(-19.39 5.29)"/><path class="cls-1" d="M949.08,146.17a116.79,116.79,0,0,1,14.2.45c2.92.25,5.89.59,8.88,1,12.65,1.68,25.54,4.49,35.29,6.82a8.28,8.28,0,0,0,5.79,5c3.45,13.58,9,26.18,17.11,37a6.54,6.54,0,0,0,6.46,2.59c2.3-.47,3.22-2.12,2.39-5.24a13.75,13.75,0,0,0-2.18-4.43,101.79,101.79,0,0,1-15-32.28,1.44,1.44,0,0,1,1.59-1.8c9.36,1.29,18.53,3.72,27.12,9.43a9.49,9.49,0,0,0,5.24,1.64c2.69,0,4.15-1.22,4.58-3.45a6.89,6.89,0,0,0-4.12-7.49c-10.48-4.66-26.38-7.26-34-8.31a8.32,8.32,0,0,0-6-4c-5.79-11.77-16.07-21.49-27.24-29.87a37.7,37.7,0,0,1-7.66,9.91c9.77,6.53,19.13,14.14,25.91,21.72a.63.63,0,0,1-.73,1,160.84,160.84,0,0,0-31.4-10.31c-2.93-.62-5.84-1.13-8.73-1.53a89.42,89.42,0,0,0-15.64-.91,9.44,9.44,0,0,0-7.92,4.76,4.78,4.78,0,0,0,0,5.34A6.88,6.88,0,0,0,949.08,146.17Z" transform="translate(-19.39 5.29)"/><path class="cls-2" d="M989.14,113.2q-1.36-1-2.74-2a36.71,36.71,0,0,1-7.35,10.34l2.42,1.59A37.7,37.7,0,0,0,989.14,113.2Z" transform="translate(-19.39 5.29)"/><path class="cls-1" d="M891,167.29a5,5,0,0,0-4,1.62,3,3,0,0,0-.62,3.32,4.22,4.22,0,0,0,4.25,2.59,22.38,22.38,0,0,1,4.68.15A50.79,50.79,0,0,1,896,168,23.84,23.84,0,0,0,891,167.29Z" transform="translate(-19.39 5.29)"/><path class="cls-1" d="M899.35,169.16a44.44,44.44,0,0,0-.54,6.56,32.54,32.54,0,0,1,6.65,2.84v0a5.7,5.7,0,0,0,.07,1.71,29.09,29.09,0,0,1-16.15.1,3.88,3.88,0,0,0-3.28.49,2.72,2.72,0,0,0-1.23,2.74,4.34,4.34,0,0,0,3.38,3.64c7.6,1.71,14.24.69,19.85-3.24a5.65,5.65,0,0,0,4.56.66c10.89,9.28,25.74,14,43.05,15.87a6.18,6.18,0,0,0,6.46-3.79,4.59,4.59,0,0,0-1.17-5.15,8.23,8.23,0,0,0-5.39-2.48c-14.28-1.06-26.9-3.13-34.74-8.16a.58.58,0,0,1,.14-1c10.47-3.41,23.09-2.5,36.53.05a5.71,5.71,0,0,0,6.1-2.77,5.43,5.43,0,0,0,.63-3.19,6.47,6.47,0,0,0-5.47-5.7c-14.31-2.26-29.46-.44-45.48,5.62a5.67,5.67,0,0,0-4.94.27A45.09,45.09,0,0,0,899.35,169.16Z" transform="translate(-19.39 5.29)"/><path class="cls-2" d="M895.3,175a24.18,24.18,0,0,1,3.52.75,44.44,44.44,0,0,1,.54-6.56A28,28,0,0,0,896,168,50.79,50.79,0,0,0,895.3,175Z" transform="translate(-19.39 5.29)"/><path class="cls-1" d="M1199.36,176.92c-6.83-9.37-11.24-21-14.19-34a61.26,61.26,0,0,1-16.46,4.07q8.18,22.75,26,44.39a9.3,9.3,0,0,0,1.58,6.67c-7.72,14-9.37,30.52-4.5,49.62a5,5,0,0,0,2.6,3.29l.2.09a7.15,7.15,0,0,0,9.89-8.44q-5.85-21.18.59-37.74a1.64,1.64,0,0,1,2.74-.48c8,8.67,13.71,21,17.1,37.28a6.62,6.62,0,0,0,5.7,5.22l.19,0a7.61,7.61,0,0,0,7.9-9.75c-5.57-19.3-14-33.48-25.71-42.06a9.31,9.31,0,0,0-1.3-7.7c8.11-21.85,8.32-46.76,3.87-73.48a10.24,10.24,0,0,0-13.44-8l-.18.07a8.91,8.91,0,0,0-5.38,10.7c5.72,21.18,8.06,41.23,5.44,59.61A1.47,1.47,0,0,1,1199.36,176.92Z" transform="translate(-19.39 5.29)"/><path class="cls-1" d="M1166.77,141.13a69.7,69.7,0,0,0,17.13-4.37c-1-5.23-1.76-10.66-2.4-16.22a10.82,10.82,0,0,0-14.11-9.17l-.18.06a7.61,7.61,0,0,0-4.9,8A118.91,118.91,0,0,0,1166.77,141.13Z" transform="translate(-19.39 5.29)"/><path class="cls-2" d="M1168.72,147a61.26,61.26,0,0,0,16.46-4.07q-.69-3-1.28-6.17a69.7,69.7,0,0,1-17.13,4.37Q1167.66,144.08,1168.72,147Z" transform="translate(-19.39 5.29)"/><path class="cls-1" d="M1281.25,239.4q2.33,7.79,5.56,15.79a8.9,8.9,0,0,0,9.2,5.63c2.8-.33,4.73-2,5.74-5a11.84,11.84,0,0,0-.5-8.52c-1.73-3.92-3.36-7.77-4.85-11.55C1291.38,235.34,1286.32,236.82,1281.25,239.4Z" transform="translate(-19.39 5.29)"/><path class="cls-1" d="M1258,160.56c3,10.81,8.77,18.54,17.56,23a8.14,8.14,0,0,0,2.26,6.24c-2.87,13.13-2.14,27.08,1.33,41.66,4.74-2.38,9.52-3.82,14.35-3.63-3.88-11.26-6.08-21.53-5.4-30.13a.83.83,0,0,1,1.41-.52c11.42,11,18.82,27.61,24.69,46.41a8.22,8.22,0,0,0,7.65,5.87,7.81,7.81,0,0,0,4.48-1.37,9.32,9.32,0,0,0,3.52-10.81c-6.83-19.7-19.4-37.7-38-53.93a8.15,8.15,0,0,0-3.69-6.08c1.13-9.36,1-18.45-3-26.74a7.25,7.25,0,0,0-4.78-4,4.29,4.29,0,0,0-4.63,1.46,6.08,6.08,0,0,0-.41,7.15c4.21,6.64,5.44,13.87,5.32,21.37l-.05,0a8.2,8.2,0,0,0-2.13,1.25,41.86,41.86,0,0,1-11.07-20.43,5.59,5.59,0,0,0-2.85-3.83,3.92,3.92,0,0,0-4.32.3A6.24,6.24,0,0,0,1258,160.56Z" transform="translate(-19.39 5.29)"/><path class="cls-2" d="M1279.11,231.45q.94,3.95,2.14,8c5.07-2.59,10.13-4.06,15.16-3.63q-1.59-4-2.95-8C1288.63,227.63,1283.85,229.07,1279.11,231.45Z" transform="translate(-19.39 5.29)"/><path class="cls-1" d="M1087.27,237.83a5.94,5.94,0,0,0,.33,5.09,3.52,3.52,0,0,0,3.48,1.92,5,5,0,0,0,4.47-3.8,26.38,26.38,0,0,1,1.89-5.18,59.85,59.85,0,0,1-7.51-3.29A28.09,28.09,0,0,0,1087.27,237.83Z" transform="translate(-19.39 5.29)"/><path class="cls-1" d="M1092.44,229.17a52.36,52.36,0,0,0,7.14,3,38.35,38.35,0,0,1,5.63-6.39l0,0a6.71,6.71,0,0,0,1.94.55,34.28,34.28,0,0,1-5.85,18.11,4.58,4.58,0,0,0-.66,3.85,3.21,3.21,0,0,0,2.62,2.39,5.11,5.11,0,0,0,5.32-2.45c4.72-7.88,6-15.68,3.69-23.41a6.66,6.66,0,0,0,2.42-4.86c14.4-8.76,25.16-23.64,33.64-42.33a7.29,7.29,0,0,0-1.86-8.63,5.41,5.41,0,0,0-6.2-.58,9.7,9.7,0,0,0-4.76,5.12c-6.45,15.6-13.43,29-21.94,35.87a.68.68,0,0,1-1.11-.54c0-13,5.71-26.76,13.53-40.87a6.73,6.73,0,0,0-.85-7.85,6.4,6.4,0,0,0-3.34-1.88,7.63,7.63,0,0,0-8.39,4c-7.81,15.18-11.36,32.81-10.48,53a6.68,6.68,0,0,0-1.52,5.63A53.13,53.13,0,0,0,1092.44,229.17Z" transform="translate(-19.39 5.29)"/><path class="cls-2" d="M1097.45,235.85a28.49,28.49,0,0,1,2.13-3.66,52.36,52.36,0,0,1-7.14-3,32.93,32.93,0,0,0-2.5,3.39A59.85,59.85,0,0,0,1097.45,235.85Z" transform="translate(-19.39 5.29)"/><path class="cls-1" d="M1258,7a137.63,137.63,0,0,1,8.46,14.44,62.88,62.88,0,0,1,14.63-4.68,105.38,105.38,0,0,0-8.9-16.18,11.12,11.12,0,0,0-9.71-4.92,5.64,5.64,0,0,0-5.3,3.39A8.1,8.1,0,0,0,1258,7Z" transform="translate(-19.39 5.29)"/><path class="cls-2" d="M1271,30.92a37,37,0,0,1,14-4.49c-1.21-3.31-2.54-6.54-3.95-9.67a62.88,62.88,0,0,0-14.63,4.68C1268,24.51,1269.57,27.69,1271,30.92Z" transform="translate(-19.39 5.29)"/><path class="cls-1" d="M1260.28,127.69c1.91,2,4.13,1.88,6.73-.91a16.2,16.2,0,0,0,3.05-4.95c5-12.19,12.54-23.94,22.79-35.22a1.69,1.69,0,0,1,2.79.46c4.59,10.15,7.91,20.82,7.6,33a11.18,11.18,0,0,0,1.64,6.26c1.69,2.68,3.82,3.37,6.31,2.4a8.12,8.12,0,0,0,4.89-8.81c-1.92-13.38-9.3-30.87-13.06-39.18a9.8,9.8,0,0,0,.26-8.52c8.11-13.15,11.36-29.51,12.72-45.91q.17-2,.3-4c.47-7.08.63-14.11.73-20.85A6,6,0,0,0,1313.85-4a15.49,15.49,0,0,0-1.68-.74A8.51,8.51,0,0,0,1300.87,4c.41,5.57.59,11.47.52,17.47q0,1.7-.07,3.41c-.38,13.84-2.11,28-5.42,39.47a.75.75,0,0,1-1.46-.1,189.53,189.53,0,0,0-9.4-37.8,37,37,0,0,0-14,4.49c6.25,13.68,11.53,28.3,15.33,39.49a9.76,9.76,0,0,0-1.37,8.92c-11.39,12-20.49,25.38-26.2,40.29A7.71,7.71,0,0,0,1260.28,127.69Z" transform="translate(-19.39 5.29)"/><path class="cls-1" d="M1109.32,124.68c5.77,4.13,11.66,8,17.33,11.61a6,6,0,0,0,6.29.15,15.49,15.49,0,0,0,1.51-1,8.51,8.51,0,0,0-1.44-14.19c-4.95-2.58-10.06-5.55-15.11-8.77A43.25,43.25,0,0,0,1109.32,124.68Z" transform="translate(-19.39 5.29)"/><path class="cls-1" d="M1153.07,83.21a137.63,137.63,0,0,1-16.73-.43c-3.44-.28-6.94-.65-10.47-1.1-14.92-1.9-30.13-5.12-41.63-7.8a9.76,9.76,0,0,0-6.85-5.87c-4.16-16-10.76-30.79-20.41-43.51a7.71,7.71,0,0,0-7.63-3c-2.71.57-3.78,2.51-2.78,6.2a16.2,16.2,0,0,0,2.59,5.2c7.73,10.67,13.73,23.28,17.9,37.94a1.69,1.69,0,0,1-1.86,2.13c-11-1.45-21.86-4.26-32-10.93a11.18,11.18,0,0,0-6.18-1.9c-3.17,0-4.88,1.47-5.37,4.1a8.12,8.12,0,0,0,4.91,8.8c12.38,5.43,31.13,8.38,40.18,9.56a9.8,9.8,0,0,0,7.1,4.72c6.9,13.83,19.08,25.21,32.29,35a44.43,44.43,0,0,1,9-11.73c-11.56-7.63-22.64-16.53-30.67-25.42a.75.75,0,0,1,.86-1.18,189.53,189.53,0,0,0,37.07,11.95c3.45.71,6.89,1.29,10.29,1.75a105.37,105.37,0,0,0,18.44,1,11.12,11.12,0,0,0,9.3-5.66,5.64,5.64,0,0,0-.08-6.29A8.1,8.1,0,0,0,1153.07,83.21Z" transform="translate(-19.39 5.29)"/><path class="cls-2" d="M1106.08,122.32q1.61,1.19,3.24,2.36a43.25,43.25,0,0,1,8.59-12.24q-1.43-.91-2.86-1.85A44.43,44.43,0,0,0,1106.08,122.32Z" transform="translate(-19.39 5.29)"/><path class="cls-1" d="M1221.36,57.93a5.94,5.94,0,0,0,4.72-1.94,3.52,3.52,0,0,0,.71-3.91,5,5,0,0,0-5-3,26.38,26.38,0,0,1-5.52-.14,59.85,59.85,0,0,1-.73,8.17A28.09,28.09,0,0,0,1221.36,57.93Z" transform="translate(-19.39 5.29)"/><path class="cls-1" d="M1211.51,55.79a52.36,52.36,0,0,0,.59-7.73,38.35,38.35,0,0,1-7.85-3.3v0a6.71,6.71,0,0,0-.09-2,34.28,34.28,0,0,1,19-.22,4.58,4.58,0,0,0,3.86-.6,3.21,3.21,0,0,0,1.43-3.24,5.11,5.11,0,0,0-4-4.26c-9-2-16.78-.72-23.36,3.95a6.66,6.66,0,0,0-5.38-.75c-12.89-10.87-30.42-16.32-50.84-18.42a7.29,7.29,0,0,0-7.59,4.51,5.41,5.41,0,0,0,1.42,6.06,9.7,9.7,0,0,0,6.37,2.89c16.84,1.15,31.72,3.52,41,9.39a.68.68,0,0,1-.16,1.22c-12.32,4.08-27.19,3.1-43,.18a6.73,6.73,0,0,0-7.17,3.3,6.4,6.4,0,0,0-.72,3.77,7.63,7.63,0,0,0,6.49,6.68c16.88,2.57,34.72.33,53.56-6.92a6.68,6.68,0,0,0,5.82-.35A53.13,53.13,0,0,0,1211.51,55.79Z" transform="translate(-19.39 5.29)"/><path class="cls-2" d="M1216.25,48.91a28.49,28.49,0,0,1-4.15-.86,52.36,52.36,0,0,1-.59,7.73,32.93,32.93,0,0,0,4,1.3A59.85,59.85,0,0,0,1216.25,48.91Z" transform="translate(-19.39 5.29)"/><path class="cls-1" d="M1007.67,281.82c5.75,8,9.44,17.87,11.88,28.91a52,52,0,0,1,14-3.37q-6.84-19.34-21.85-37.79a7.89,7.89,0,0,0-1.31-5.67c6.62-11.88,8.1-25.85,4.06-42.09a4.27,4.27,0,0,0-2.19-2.81l-.17-.08a6.07,6.07,0,0,0-8.44,7.11q4.86,18-.68,32a1.39,1.39,0,0,1-2.33.39c-6.71-7.4-11.53-17.89-14.33-31.72a5.62,5.62,0,0,0-4.82-4.46l-.16,0a6.46,6.46,0,0,0-6.75,8.23c4.64,16.41,11.76,28.48,21.62,35.81a7.9,7.9,0,0,0,1.07,6.54c-7,18.5-7.28,39.64-3.64,62.34a8.69,8.69,0,0,0,11.36,6.89l.16-.06a7.57,7.57,0,0,0,4.62-9.05c-4.75-18-6.65-35-4.33-50.61A1.25,1.25,0,0,1,1007.67,281.82Z" transform="translate(-19.39 5.29)"/><path class="cls-1" d="M1035.16,312.35A59.15,59.15,0,0,0,1020.6,316c.81,4.45,1.45,9.05,2,13.77a9.19,9.19,0,0,0,11.93,7.85l.15-.05a6.46,6.46,0,0,0,4.2-6.78A100.91,100.91,0,0,0,1035.16,312.35Z" transform="translate(-19.39 5.29)"/><path class="cls-2" d="M1033.53,307.36a52,52,0,0,0-14,3.37q.57,2.58,1.05,5.24a59.15,59.15,0,0,1,14.56-3.63Q1034.42,309.85,1033.53,307.36Z" transform="translate(-19.39 5.29)"/><path class="cls-1" d="M938.48,228.42q-1.94-6.62-4.65-13.43a7.55,7.55,0,0,0-7.78-4.82,5.61,5.61,0,0,0-4.9,4.2,10,10,0,0,0,.38,7.23c1.45,3.33,2.82,6.61,4.06,9.82C929.86,231.81,934.16,230.59,938.48,228.42Z" transform="translate(-19.39 5.29)"/><path class="cls-1" d="M957.87,295.44c-2.48-9.19-7.36-15.78-14.79-19.6a6.91,6.91,0,0,0-1.89-5.31c2.5-11.13,1.94-23-.93-35.36a25,25,0,0,1-12.19,3c3.24,9.57,5.06,18.3,4.44,25.59a.71.71,0,0,1-1.2.44c-9.64-9.37-15.84-23.52-20.73-39.5a7,7,0,0,0-6.46-5,6.63,6.63,0,0,0-3.81,1.14,7.91,7.91,0,0,0-3,9.16c5.7,16.75,16.29,32.08,32,45.95a6.92,6.92,0,0,0,3.1,5.18c-1,7.93-.95,15.65,2.4,22.71a6.15,6.15,0,0,0,4,3.41,3.64,3.64,0,0,0,3.94-1.22,5.16,5.16,0,0,0,.38-6.06c-3.54-5.66-4.55-11.8-4.42-18.16l0,0a7,7,0,0,0,1.81-1.05,35.52,35.52,0,0,1,9.3,17.39,4.74,4.74,0,0,0,2.4,3.26,3.33,3.33,0,0,0,3.66-.24A5.29,5.29,0,0,0,957.87,295.44Z" transform="translate(-19.39 5.29)"/><path class="cls-2" d="M940.25,235.17q-.78-3.35-1.78-6.76c-4.32,2.17-8.61,3.39-12.88,3q1.33,3.44,2.46,6.77A25,25,0,0,0,940.25,235.17Z" transform="translate(-19.39 5.29)"/><path class="cls-1" d="M869.48,281.15a5,5,0,0,0-.26-4.32,3,3,0,0,0-2.95-1.65,4.22,4.22,0,0,0-3.81,3.2,22.38,22.38,0,0,1-1.63,4.39,50.79,50.79,0,0,1,6.36,2.83A23.84,23.84,0,0,0,869.48,281.15Z" transform="translate(-19.39 5.29)"/><path class="cls-1" d="M865.06,288.47a44.44,44.44,0,0,0-6-2.59,32.54,32.54,0,0,1-4.81,5.4l0,0a5.7,5.7,0,0,0-1.65-.48,29.09,29.09,0,0,1,5-15.34,3.88,3.88,0,0,0,.58-3.27,2.72,2.72,0,0,0-2.21-2,4.34,4.34,0,0,0-4.52,2.05c-4,6.66-5.19,13.28-3.25,19.85a5.65,5.65,0,0,0-2.08,4.11c-12.26,7.37-21.46,19.94-28.75,35.76a6.18,6.18,0,0,0,1.54,7.33,4.59,4.59,0,0,0,5.26.53,8.23,8.23,0,0,0,4.07-4.32c5.55-13.2,11.53-24.51,18.79-30.34a.58.58,0,0,1,.94.46c-.1,11-5,22.69-11.68,34.61a5.71,5.71,0,0,0,.68,6.66,5.43,5.43,0,0,0,2.83,1.61,6.47,6.47,0,0,0,7.14-3.38c6.7-12.85,9.79-27.79,9.15-44.91a5.67,5.67,0,0,0,1.32-4.77A45.09,45.09,0,0,0,865.06,288.47Z" transform="translate(-19.39 5.29)"/><path class="cls-2" d="M860.84,282.78a24.18,24.18,0,0,1-1.83,3.09,44.44,44.44,0,0,1,6,2.59,28,28,0,0,0,2.14-2.86A50.79,50.79,0,0,0,860.84,282.78Z" transform="translate(-19.39 5.29)"/><path class="cls-1" d="M911.39,320.09a116.8,116.8,0,0,1-6.52,12.62,53.36,53.36,0,0,1,10,8.37,89.43,89.43,0,0,0,7.55-13.73,9.44,9.44,0,0,0-.88-9.2,4.78,4.78,0,0,0-4.83-2.26A6.88,6.88,0,0,0,911.39,320.09Z" transform="translate(-19.39 5.29)"/><path class="cls-2" d="M900.17,340.3a31.38,31.38,0,0,1,9.57,8c1.82-2.37,3.53-4.79,5.14-7.22a53.36,53.36,0,0,0-10-8.37C903.4,335.24,901.81,337.78,900.17,340.3Z" transform="translate(-19.39 5.29)"/><path class="cls-1" d="M825.9,376.52c-.57,2.28.52,3.82,3.71,4.41a13.75,13.75,0,0,0,4.93-.06,101.79,101.79,0,0,1,35.6.35,1.44,1.44,0,0,1,.94,2.21c-5.19,7.9-11.33,15.12-20.19,20.42a9.49,9.49,0,0,0-3.74,4c-1.15,2.43-.68,4.27,1.14,5.62a6.89,6.89,0,0,0,8.54-.49c8.72-7.45,17.91-20.68,22.16-27.15a8.32,8.32,0,0,0,6.23-3.68c13.11-.16,26.31-5.26,38.69-11.72q1.51-.79,3-1.6c5.29-2.88,10.4-6,15.28-8.95a5.06,5.06,0,0,0,2.44-4.75,13.15,13.15,0,0,0-.24-1.54A7.22,7.22,0,0,0,933,349.46c-3.8,2.83-8,5.63-12.29,8.3l-2.47,1.5c-10.1,6-21,11.18-30.75,14a.63.63,0,0,1-.59-1.09,160.84,160.84,0,0,0,22.83-23.9,31.38,31.38,0,0,0-9.57-8c-7,10.69-15.05,21.12-21.35,28.92a8.28,8.28,0,0,0-7,3.07c-13.74-2.73-27.5-3.16-40.78-.49A6.54,6.54,0,0,0,825.9,376.52Z" transform="translate(-19.39 5.29)"/><path class="cls-1" d="M1104.17,397.07c-1.62,4.67-3,9.36-4.36,13.86a4.17,4.17,0,0,0,1.08,4.22,10.37,10.37,0,0,0,1,.8,5.81,5.81,0,0,0,9-3.79c.77-3.81,1.75-7.81,2.91-11.82A28.6,28.6,0,0,0,1104.17,397.07Z" transform="translate(-19.39 5.29)"/><path class="cls-1" d="M1139.44,417.92a96.53,96.53,0,0,1-2.84-11.23c-.46-2.34-.87-4.75-1.23-7.19-1.54-10.32-2.27-21.09-2.67-29.29a7,7,0,0,0,2.55-5.74,85.37,85.37,0,0,0,24.63-22.29,5.48,5.48,0,0,0,.54-5.68c-.88-1.69-2.35-2-4.57-.61a11.33,11.33,0,0,0-2.92,2.77,83.81,83.81,0,0,1-21.46,19.5,1.13,1.13,0,0,1-1.74-.81c-1.11-7.64-1.29-15.41,1.17-23.51a8,8,0,0,0,.09-4.5c-.61-2.11-1.87-3-3.68-2.76a5.69,5.69,0,0,0-4.84,5c-1.24,9.33.33,22.41,1.25,28.67a7,7,0,0,0-1.76,5.67c-7.75,7.36-12.92,17.75-16.86,28.5a29.39,29.39,0,0,1,9.34,3.63,117.71,117.71,0,0,1,10.89-25.51.5.5,0,0,1,.93.33,135,135,0,0,0-.89,27.08q.27,3.66.78,7.2a74,74,0,0,0,2.81,12.47,7.49,7.49,0,0,0,5.43,5.07,3.82,3.82,0,0,0,4.1-1.31A5.77,5.77,0,0,0,1139.44,417.92Z" transform="translate(-19.39 5.29)"/><path class="cls-2" d="M1105.11,394.44q-.48,1.31-.94,2.63a28.6,28.6,0,0,1,9.6,3.27q.33-1.14.68-2.28A29.39,29.39,0,0,0,1105.11,394.44Z" transform="translate(-19.39 5.29)"/><path class="cls-1" d="M988.44,382.7a5,5,0,0,0-4,1.62,3,3,0,0,0-.62,3.32,4.22,4.22,0,0,0,4.25,2.59,22.38,22.38,0,0,1,4.68.15,50.79,50.79,0,0,1,.66-6.93A23.84,23.84,0,0,0,988.44,382.7Z" transform="translate(-19.39 5.29)"/><path class="cls-1" d="M996.78,384.56a44.44,44.44,0,0,0-.54,6.56,32.54,32.54,0,0,1,6.65,2.84v0a5.7,5.7,0,0,0,.07,1.71,29.09,29.09,0,0,1-16.15.1,3.88,3.88,0,0,0-3.28.49A2.72,2.72,0,0,0,982.3,399a4.34,4.34,0,0,0,3.38,3.64c7.6,1.71,14.24.69,19.85-3.24a5.65,5.65,0,0,0,4.56.66c10.89,9.28,25.74,14,43.05,15.87a6.18,6.18,0,0,0,6.46-3.79,4.59,4.59,0,0,0-1.17-5.15,8.23,8.23,0,0,0-5.39-2.48c-14.28-1.06-26.9-3.13-34.74-8.16a.58.58,0,0,1,.14-1c10.47-3.41,23.09-2.5,36.53.05a5.71,5.71,0,0,0,6.1-2.77,5.43,5.43,0,0,0,.63-3.19,6.47,6.47,0,0,0-5.47-5.7c-14.31-2.26-29.46-.44-45.48,5.62a5.67,5.67,0,0,0-4.94.27A45.09,45.09,0,0,0,996.78,384.56Z" transform="translate(-19.39 5.29)"/><path class="cls-2" d="M992.73,390.37a24.18,24.18,0,0,1,3.52.75,44.44,44.44,0,0,1,.54-6.56,28,28,0,0,0-3.39-1.12A50.79,50.79,0,0,0,992.73,390.37Z" transform="translate(-19.39 5.29)"/><path class="cls-1" d="M1305.59,354.76c-6.83-9.37-11.24-21-14.19-34a61.26,61.26,0,0,1-16.46,4.07q8.18,22.75,26,44.39a9.3,9.3,0,0,0,1.58,6.67c-7.72,14-9.37,30.52-4.5,49.62a5,5,0,0,0,2.6,3.29l.2.09a7.15,7.15,0,0,0,9.89-8.44q-5.85-21.18.59-37.74a1.64,1.64,0,0,1,2.74-.48c8,8.67,13.71,21,17.1,37.28a6.62,6.62,0,0,0,5.7,5.22l.19,0a7.61,7.61,0,0,0,7.9-9.75c-5.57-19.3-14-33.48-25.71-42.06a9.31,9.31,0,0,0-1.3-7.7c8.11-21.85,8.32-46.76,3.87-73.48a10.24,10.24,0,0,0-13.44-8l-.18.07a8.91,8.91,0,0,0-5.38,10.7c5.72,21.18,8.06,41.23,5.44,59.61A1.47,1.47,0,0,1,1305.59,354.76Z" transform="translate(-19.39 5.29)"/><path class="cls-1" d="M1273,319a69.7,69.7,0,0,0,17.13-4.37c-1-5.23-1.76-10.66-2.4-16.22a10.82,10.82,0,0,0-14.11-9.17l-.18.06a7.61,7.61,0,0,0-4.9,8A118.91,118.91,0,0,0,1273,319Z" transform="translate(-19.39 5.29)"/><path class="cls-2" d="M1275,324.84a61.26,61.26,0,0,0,16.46-4.07q-.69-3-1.28-6.17A69.7,69.7,0,0,1,1273,319Q1273.9,321.92,1275,324.84Z" transform="translate(-19.39 5.29)"/><path class="cls-1" d="M1199.71,345.36c5.77,4.13,11.66,8,17.33,11.61a6,6,0,0,0,6.29.15,15.49,15.49,0,0,0,1.51-1,8.51,8.51,0,0,0-1.44-14.19c-4.95-2.58-10.06-5.55-15.11-8.77A43.25,43.25,0,0,0,1199.71,345.36Z" transform="translate(-19.39 5.29)"/><path class="cls-1" d="M1243.46,303.89a137.63,137.63,0,0,1-16.73-.43c-3.44-.28-6.94-.65-10.47-1.1-14.92-1.9-30.13-5.12-41.63-7.8a9.76,9.76,0,0,0-6.85-5.87c-4.16-16-10.76-30.79-20.41-43.51a7.71,7.71,0,0,0-7.63-3c-2.71.57-3.78,2.51-2.78,6.2a16.2,16.2,0,0,0,2.59,5.2c7.73,10.67,13.73,23.28,17.9,37.94a1.69,1.69,0,0,1-1.86,2.13c-11-1.45-21.86-4.26-32-10.93a11.18,11.18,0,0,0-6.18-1.9c-3.17,0-4.88,1.47-5.37,4.1a8.12,8.12,0,0,0,4.91,8.8c12.38,5.43,31.13,8.38,40.18,9.56a9.8,9.8,0,0,0,7.1,4.72c6.9,13.83,19.08,25.21,32.29,35a44.43,44.43,0,0,1,9-11.73c-11.56-7.63-22.64-16.53-30.67-25.42a.75.75,0,0,1,.86-1.18,189.53,189.53,0,0,0,37.07,11.95c3.45.71,6.89,1.29,10.29,1.75a105.37,105.37,0,0,0,18.44,1,11.12,11.12,0,0,0,9.3-5.66,5.64,5.64,0,0,0-.08-6.29A8.1,8.1,0,0,0,1243.46,303.89Z" transform="translate(-19.39 5.29)"/><path class="cls-2" d="M1196.47,343q1.61,1.19,3.24,2.36a43.25,43.25,0,0,1,8.59-12.24q-1.43-.91-2.86-1.85A44.43,44.43,0,0,0,1196.47,343Z" transform="translate(-19.39 5.29)"/><path class="cls-1" d="M893.24,503.42c5.75,8,9.44,17.87,11.88,28.91a52,52,0,0,1,14-3.37q-6.84-19.34-21.85-37.79a7.89,7.89,0,0,0-1.31-5.67c6.62-11.88,8.1-25.85,4.06-42.09a4.27,4.27,0,0,0-2.19-2.81l-.17-.08a6.07,6.07,0,0,0-8.44,7.11q4.86,18-.68,32a1.39,1.39,0,0,1-2.33.39c-6.71-7.4-11.53-17.89-14.33-31.72a5.62,5.62,0,0,0-4.82-4.46l-.16,0a6.46,6.46,0,0,0-6.75,8.23c4.64,16.41,11.76,28.48,21.62,35.81a7.9,7.9,0,0,0,1.07,6.54c-7,18.5-7.28,39.64-3.64,62.34a8.69,8.69,0,0,0,11.36,6.89l.16-.06a7.57,7.57,0,0,0,4.62-9.05c-4.75-18-6.65-35-4.33-50.61A1.25,1.25,0,0,1,893.24,503.42Z" transform="translate(-19.39 5.29)"/><path class="cls-1" d="M920.73,533.95a59.15,59.15,0,0,0-14.56,3.63c.81,4.45,1.45,9.05,2,13.77a9.19,9.19,0,0,0,11.93,7.85l.15-.05a6.46,6.46,0,0,0,4.2-6.78A100.91,100.91,0,0,0,920.73,533.95Z" transform="translate(-19.39 5.29)"/><path class="cls-2" d="M919.1,529a52,52,0,0,0-14,3.37q.57,2.58,1.05,5.24a59.15,59.15,0,0,1,14.56-3.63Q920,531.45,919.1,529Z" transform="translate(-19.39 5.29)"/><path class="cls-1" d="M824,450q-1.94-6.62-4.65-13.43a7.55,7.55,0,0,0-7.78-4.82,5.61,5.61,0,0,0-4.9,4.2,10,10,0,0,0,.38,7.23c1.45,3.33,2.82,6.61,4.06,9.82C815.43,453.41,819.73,452.18,824,450Z" transform="translate(-19.39 5.29)"/><path class="cls-1" d="M843.44,517c-2.48-9.19-7.36-15.78-14.79-19.6a6.91,6.91,0,0,0-1.89-5.31c2.5-11.13,1.94-23-.93-35.36a25,25,0,0,1-12.19,3c3.24,9.57,5.06,18.3,4.44,25.59a.71.71,0,0,1-1.2.44c-9.64-9.37-15.84-23.52-20.73-39.5a7,7,0,0,0-6.46-5,6.63,6.63,0,0,0-3.81,1.14,7.91,7.91,0,0,0-3,9.16c5.7,16.75,16.29,32.08,32,45.95a6.92,6.92,0,0,0,3.1,5.18c-1,7.93-.95,15.65,2.4,22.71a6.15,6.15,0,0,0,4,3.41,3.64,3.64,0,0,0,3.94-1.22,5.16,5.16,0,0,0,.38-6.06c-3.54-5.66-4.55-11.8-4.42-18.16l0,0a7,7,0,0,0,1.81-1.05,35.52,35.52,0,0,1,9.3,17.39,4.74,4.74,0,0,0,2.4,3.26,3.33,3.33,0,0,0,3.66-.24A5.29,5.29,0,0,0,843.44,517Z" transform="translate(-19.39 5.29)"/><path class="cls-2" d="M825.82,456.77Q825,453.42,824,450c-4.32,2.17-8.61,3.39-12.88,3q1.33,3.44,2.46,6.77A25,25,0,0,0,825.82,456.77Z" transform="translate(-19.39 5.29)"/><path class="cls-1" d="M988.65,452.27a5,5,0,0,0-.26-4.32,3,3,0,0,0-2.95-1.65,4.22,4.22,0,0,0-3.81,3.2A22.38,22.38,0,0,1,980,453.9a50.79,50.79,0,0,1,6.36,2.83A23.84,23.84,0,0,0,988.65,452.27Z" transform="translate(-19.39 5.29)"/><path class="cls-1" d="M984.23,459.59a44.44,44.44,0,0,0-6-2.59,32.54,32.54,0,0,1-4.81,5.4l0,0a5.7,5.7,0,0,0-1.65-.48,29.09,29.09,0,0,1,5-15.34,3.88,3.88,0,0,0,.58-3.27,2.72,2.72,0,0,0-2.21-2,4.34,4.34,0,0,0-4.52,2.05c-4,6.66-5.19,13.28-3.25,19.85a5.65,5.65,0,0,0-2.08,4.11C953,474.63,943.8,487.21,936.52,503a6.18,6.18,0,0,0,1.54,7.33,4.59,4.59,0,0,0,5.26.53,8.23,8.23,0,0,0,4.07-4.32c5.55-13.2,11.53-24.51,18.79-30.34a.58.58,0,0,1,.94.46c-.1,11-5,22.69-11.68,34.61a5.71,5.71,0,0,0,.68,6.66,5.43,5.43,0,0,0,2.83,1.61,6.47,6.47,0,0,0,7.14-3.38c6.7-12.85,9.79-27.79,9.15-44.91a5.67,5.67,0,0,0,1.32-4.77A45.09,45.09,0,0,0,984.23,459.59Z" transform="translate(-19.39 5.29)"/><path class="cls-2" d="M980,453.9a24.18,24.18,0,0,1-1.83,3.09,44.44,44.44,0,0,1,6,2.59,28,28,0,0,0,2.14-2.86A50.79,50.79,0,0,0,980,453.9Z" transform="translate(-19.39 5.29)"/><path class="cls-1" d="M842.66,647.34a116.8,116.8,0,0,1-7.11-12.3,53.36,53.36,0,0,1-12.44,3.9,89.43,89.43,0,0,0,7.48,13.77,9.44,9.44,0,0,0,8.22,4.22,4.78,4.78,0,0,0,4.51-2.85A6.88,6.88,0,0,0,842.66,647.34Z" transform="translate(-19.39 5.29)"/><path class="cls-2" d="M831.71,627a31.38,31.38,0,0,1-11.9,3.74c1,2.82,2.12,5.56,3.3,8.22a53.36,53.36,0,0,0,12.44-3.9C834.23,632.43,832.95,629.73,831.71,627Z" transform="translate(-19.39 5.29)"/><path class="cls-1" d="M841.31,544.91c-1.61-1.71-3.49-1.62-5.71.74a13.75,13.75,0,0,0-2.61,4.18,101.79,101.79,0,0,1-19.51,29.78,1.44,1.44,0,0,1-2.37-.4c-3.84-8.63-6.61-17.7-6.3-28a9.49,9.49,0,0,0-1.36-5.32c-1.42-2.28-3.23-2.88-5.35-2.07a6.89,6.89,0,0,0-4.19,7.45c1.57,11.36,7.74,26.24,10.9,33.31a8.32,8.32,0,0,0-.27,7.23c-6.95,11.12-9.78,25-11,38.9q-.15,1.69-.27,3.39c-.43,6-.6,12-.71,17.69a5.06,5.06,0,0,0,2.68,4.62,13.15,13.15,0,0,0,1.42.63,7.22,7.22,0,0,0,9.63-7.33c-.33-4.73-.44-9.74-.35-14.83q0-1.44.07-2.89c.39-11.75,1.92-23.71,4.79-33.46a.63.63,0,0,1,1.24.1,160.84,160.84,0,0,0,7.8,32.12,31.38,31.38,0,0,0,11.9-3.74c-5.24-11.64-9.65-24.07-12.82-33.58a8.28,8.28,0,0,0,1.2-7.56c9.72-10.09,17.51-21.44,22.43-34.06A6.54,6.54,0,0,0,841.31,544.91Z" transform="translate(-19.39 5.29)"/><path class="cls-1" d="M969.4,548.18c-4.87-3.53-9.86-6.83-14.65-9.94a5.06,5.06,0,0,0-5.34-.16,13.14,13.14,0,0,0-1.29.88,7.22,7.22,0,0,0,1.15,12c4.19,2.22,8.51,4.76,12.78,7.52A36.71,36.71,0,0,0,969.4,548.18Z" transform="translate(-19.39 5.29)"/><path class="cls-1" d="M932.08,583.17a116.79,116.79,0,0,1,14.2.45c2.92.25,5.89.59,8.88,1,12.65,1.68,25.54,4.49,35.29,6.82a8.28,8.28,0,0,0,5.79,5c3.45,13.58,9,26.18,17.11,37a6.54,6.54,0,0,0,6.46,2.59c2.3-.47,3.22-2.12,2.39-5.24a13.75,13.75,0,0,0-2.18-4.43,101.79,101.79,0,0,1-15-32.28,1.44,1.44,0,0,1,1.59-1.8c9.36,1.29,18.53,3.72,27.12,9.43a9.49,9.49,0,0,0,5.24,1.64c2.69,0,4.15-1.22,4.58-3.45a6.89,6.89,0,0,0-4.12-7.49c-10.48-4.66-26.38-7.26-34-8.31a8.32,8.32,0,0,0-6-4c-5.79-11.77-16.07-21.49-27.24-29.87a37.7,37.7,0,0,1-7.66,9.91c9.77,6.53,19.13,14.14,25.91,21.72a.63.63,0,0,1-.73,1,160.84,160.84,0,0,0-31.4-10.31c-2.93-.62-5.84-1.13-8.73-1.53a89.42,89.42,0,0,0-15.64-.91,9.44,9.44,0,0,0-7.92,4.76,4.78,4.78,0,0,0,0,5.34A6.88,6.88,0,0,0,932.08,583.17Z" transform="translate(-19.39 5.29)"/><path class="cls-2" d="M972.14,550.2q-1.36-1-2.74-2a36.71,36.71,0,0,1-7.35,10.34l2.42,1.59A37.7,37.7,0,0,0,972.14,550.2Z" transform="translate(-19.39 5.29)"/><path class="cls-1" d="M874,604.29a5,5,0,0,0-4,1.62,3,3,0,0,0-.62,3.32,4.22,4.22,0,0,0,4.25,2.59,22.38,22.38,0,0,1,4.68.15A50.79,50.79,0,0,1,879,605,23.84,23.84,0,0,0,874,604.29Z" transform="translate(-19.39 5.29)"/><path class="cls-1" d="M882.35,606.16a44.44,44.44,0,0,0-.54,6.56,32.54,32.54,0,0,1,6.65,2.84v0a5.7,5.7,0,0,0,.07,1.71,29.09,29.09,0,0,1-16.15.1,3.88,3.88,0,0,0-3.28.49,2.72,2.72,0,0,0-1.23,2.74,4.34,4.34,0,0,0,3.38,3.64c7.6,1.71,14.24.69,19.85-3.24a5.65,5.65,0,0,0,4.56.66c10.89,9.28,25.74,14,43.05,15.87a6.18,6.18,0,0,0,6.46-3.79,4.59,4.59,0,0,0-1.17-5.15,8.23,8.23,0,0,0-5.39-2.48c-14.28-1.06-26.9-3.13-34.74-8.16a.58.58,0,0,1,.14-1c10.47-3.41,23.09-2.5,36.53.05a5.71,5.71,0,0,0,6.1-2.77,5.43,5.43,0,0,0,.63-3.19,6.47,6.47,0,0,0-5.47-5.7c-14.31-2.26-29.46-.44-45.48,5.62a5.67,5.67,0,0,0-4.94.27A45.09,45.09,0,0,0,882.35,606.16Z" transform="translate(-19.39 5.29)"/><path class="cls-2" d="M878.3,612a24.18,24.18,0,0,1,3.52.75,44.44,44.44,0,0,1,.54-6.56A28,28,0,0,0,879,605,50.79,50.79,0,0,0,878.3,612Z" transform="translate(-19.39 5.29)"/><path class="cls-1" d="M1182.36,613.92c-6.83-9.37-11.24-21-14.19-34a61.26,61.26,0,0,1-16.46,4.07q8.18,22.75,26,44.39a9.3,9.3,0,0,0,1.58,6.67c-7.72,14-9.37,30.52-4.5,49.62a5,5,0,0,0,2.6,3.29l.2.09a7.15,7.15,0,0,0,9.89-8.44q-5.85-21.18.59-37.74a1.64,1.64,0,0,1,2.74-.48c8,8.67,13.71,21,17.1,37.28a6.62,6.62,0,0,0,5.7,5.22l.19,0a7.61,7.61,0,0,0,7.9-9.75c-5.57-19.3-14-33.48-25.71-42.06a9.31,9.31,0,0,0-1.3-7.7c8.11-21.85,8.32-46.76,3.87-73.48a10.24,10.24,0,0,0-13.44-8l-.18.07a8.91,8.91,0,0,0-5.38,10.7c5.72,21.18,8.06,41.23,5.44,59.61A1.47,1.47,0,0,1,1182.36,613.92Z" transform="translate(-19.39 5.29)"/><path class="cls-1" d="M1149.77,578.13a69.7,69.7,0,0,0,17.13-4.37c-1-5.23-1.76-10.66-2.4-16.22a10.82,10.82,0,0,0-14.11-9.17l-.18.06a7.61,7.61,0,0,0-4.9,8A118.91,118.91,0,0,0,1149.77,578.13Z" transform="translate(-19.39 5.29)"/><path class="cls-2" d="M1151.72,584a61.26,61.26,0,0,0,16.46-4.07q-.69-3-1.28-6.17a69.7,69.7,0,0,1-17.13,4.37Q1150.66,581.08,1151.72,584Z" transform="translate(-19.39 5.29)"/><path class="cls-1" d="M1264.25,676.4q2.33,7.79,5.56,15.79a8.9,8.9,0,0,0,9.2,5.63c2.8-.33,4.73-2,5.74-5a11.84,11.84,0,0,0-.5-8.52c-1.73-3.92-3.36-7.77-4.85-11.55C1274.38,672.34,1269.32,673.82,1264.25,676.4Z" transform="translate(-19.39 5.29)"/><path class="cls-1" d="M1241,597.56c3,10.81,8.77,18.54,17.56,23a8.14,8.14,0,0,0,2.26,6.24c-2.87,13.13-2.14,27.08,1.33,41.66,4.74-2.38,9.52-3.82,14.35-3.63-3.88-11.26-6.08-21.53-5.4-30.13a.83.83,0,0,1,1.41-.52c11.42,11,18.82,27.61,24.69,46.41a8.22,8.22,0,0,0,7.65,5.87,7.81,7.81,0,0,0,4.48-1.37,9.32,9.32,0,0,0,3.52-10.81c-6.83-19.7-19.4-37.7-38-53.93a8.15,8.15,0,0,0-3.69-6.08c1.13-9.36,1-18.45-3-26.74a7.25,7.25,0,0,0-4.78-4,4.29,4.29,0,0,0-4.63,1.46,6.08,6.08,0,0,0-.41,7.15c4.21,6.64,5.44,13.87,5.32,21.37l-.05,0a8.2,8.2,0,0,0-2.13,1.25,41.86,41.86,0,0,1-11.07-20.43,5.59,5.59,0,0,0-2.85-3.83,3.92,3.92,0,0,0-4.32.3A6.24,6.24,0,0,0,1241,597.56Z" transform="translate(-19.39 5.29)"/><path class="cls-2" d="M1262.11,668.45q.94,3.95,2.14,8c5.07-2.59,10.13-4.06,15.16-3.63q-1.59-4-2.95-8C1271.63,664.63,1266.85,666.07,1262.11,668.45Z" transform="translate(-19.39 5.29)"/><path class="cls-1" d="M1070.27,674.83a5.94,5.94,0,0,0,.33,5.09,3.52,3.52,0,0,0,3.48,1.92,5,5,0,0,0,4.47-3.8,26.38,26.38,0,0,1,1.89-5.18,59.85,59.85,0,0,1-7.51-3.29A28.09,28.09,0,0,0,1070.27,674.83Z" transform="translate(-19.39 5.29)"/><path class="cls-1" d="M1075.44,666.17a52.36,52.36,0,0,0,7.14,3,38.35,38.35,0,0,1,5.63-6.39l0,0a6.71,6.71,0,0,0,1.94.55,34.28,34.28,0,0,1-5.85,18.11,4.58,4.58,0,0,0-.66,3.85,3.21,3.21,0,0,0,2.62,2.39,5.11,5.11,0,0,0,5.32-2.45c4.72-7.88,6-15.68,3.69-23.41a6.66,6.66,0,0,0,2.42-4.86c14.4-8.76,25.16-23.64,33.64-42.33a7.29,7.29,0,0,0-1.86-8.63,5.41,5.41,0,0,0-6.2-.58,9.7,9.7,0,0,0-4.76,5.12c-6.45,15.6-13.43,29-21.94,35.87a.68.68,0,0,1-1.11-.54c0-13,5.71-26.76,13.53-40.87a6.73,6.73,0,0,0-.85-7.85,6.4,6.4,0,0,0-3.34-1.88,7.63,7.63,0,0,0-8.39,4c-7.81,15.18-11.36,32.81-10.48,53a6.68,6.68,0,0,0-1.52,5.63A53.13,53.13,0,0,0,1075.44,666.17Z" transform="translate(-19.39 5.29)"/><path class="cls-2" d="M1080.45,672.85a28.49,28.49,0,0,1,2.13-3.66,52.36,52.36,0,0,1-7.14-3,32.93,32.93,0,0,0-2.5,3.39A59.85,59.85,0,0,0,1080.45,672.85Z" transform="translate(-19.39 5.29)"/><path class="cls-1" d="M1241,444a137.63,137.63,0,0,1,8.46,14.44,62.88,62.88,0,0,1,14.63-4.68,105.38,105.38,0,0,0-8.9-16.18,11.12,11.12,0,0,0-9.71-4.92,5.64,5.64,0,0,0-5.3,3.39A8.1,8.1,0,0,0,1241,444Z" transform="translate(-19.39 5.29)"/><path class="cls-2" d="M1254,467.92a37,37,0,0,1,14-4.49c-1.21-3.31-2.54-6.54-3.95-9.67a62.88,62.88,0,0,0-14.63,4.68C1251,461.51,1252.57,464.69,1254,467.92Z" transform="translate(-19.39 5.29)"/><path class="cls-1" d="M1243.28,564.69c1.91,2,4.13,1.88,6.73-.91a16.2,16.2,0,0,0,3.05-4.95c5-12.19,12.54-23.94,22.79-35.22a1.69,1.69,0,0,1,2.79.46c4.59,10.15,7.91,20.82,7.6,33a11.18,11.18,0,0,0,1.64,6.26c1.69,2.68,3.82,3.37,6.31,2.4a8.12,8.12,0,0,0,4.89-8.81c-1.92-13.38-9.3-30.87-13.06-39.18a9.8,9.8,0,0,0,.26-8.52c8.11-13.15,11.36-29.51,12.72-45.91q.17-2,.3-4c.47-7.08.63-14.11.73-20.85a6,6,0,0,0-3.19-5.43,15.49,15.49,0,0,0-1.68-.74,8.51,8.51,0,0,0-11.29,8.71c.41,5.57.59,11.47.52,17.47q0,1.7-.07,3.41c-.38,13.84-2.11,28-5.42,39.47a.75.75,0,0,1-1.46-.1,189.53,189.53,0,0,0-9.4-37.8,37,37,0,0,0-14,4.49c6.25,13.68,11.53,28.3,15.33,39.49a9.76,9.76,0,0,0-1.37,8.92c-11.39,12-20.49,25.38-26.2,40.29A7.71,7.71,0,0,0,1243.28,564.69Z" transform="translate(-19.39 5.29)"/><path class="cls-1" d="M1092.32,561.68c5.77,4.13,11.66,8,17.33,11.61a6,6,0,0,0,6.29.15,15.49,15.49,0,0,0,1.51-1,8.51,8.51,0,0,0-1.44-14.19c-4.95-2.58-10.06-5.55-15.11-8.77A43.25,43.25,0,0,0,1092.32,561.68Z" transform="translate(-19.39 5.29)"/><path class="cls-1" d="M1136.07,520.21a137.63,137.63,0,0,1-16.73-.43c-3.44-.28-6.94-.65-10.47-1.1-14.92-1.9-30.13-5.12-41.63-7.8a9.76,9.76,0,0,0-6.85-5.87c-4.16-16-10.76-30.79-20.41-43.51a7.71,7.71,0,0,0-7.63-3c-2.71.57-3.78,2.51-2.78,6.2a16.2,16.2,0,0,0,2.59,5.2c7.73,10.67,13.73,23.28,17.9,37.94a1.69,1.69,0,0,1-1.86,2.13c-11-1.45-21.86-4.26-32-10.93a11.18,11.18,0,0,0-6.18-1.9c-3.17,0-4.88,1.47-5.37,4.1a8.12,8.12,0,0,0,4.91,8.8c12.38,5.43,31.13,8.38,40.18,9.56a9.8,9.8,0,0,0,7.1,4.72c6.9,13.83,19.08,25.21,32.29,35a44.43,44.43,0,0,1,9-11.73c-11.56-7.63-22.64-16.53-30.67-25.42a.75.75,0,0,1,.86-1.18,189.53,189.53,0,0,0,37.07,11.95c3.45.71,6.89,1.29,10.29,1.75a105.37,105.37,0,0,0,18.44,1,11.12,11.12,0,0,0,9.3-5.66,5.64,5.64,0,0,0-.08-6.29A8.1,8.1,0,0,0,1136.07,520.21Z" transform="translate(-19.39 5.29)"/><path class="cls-2" d="M1089.08,559.32q1.61,1.19,3.24,2.36a43.25,43.25,0,0,1,8.59-12.24q-1.43-.91-2.86-1.85A44.43,44.43,0,0,0,1089.08,559.32Z" transform="translate(-19.39 5.29)"/><path class="cls-1" d="M1204.36,494.93a5.94,5.94,0,0,0,4.72-1.94,3.52,3.52,0,0,0,.71-3.91,5,5,0,0,0-5-3,26.38,26.38,0,0,1-5.52-.14,59.85,59.85,0,0,1-.73,8.17A28.09,28.09,0,0,0,1204.36,494.93Z" transform="translate(-19.39 5.29)"/><path class="cls-1" d="M1194.51,492.79a52.36,52.36,0,0,0,.59-7.73,38.35,38.35,0,0,1-7.85-3.3v0a6.71,6.71,0,0,0-.09-2,34.28,34.28,0,0,1,19-.22,4.58,4.58,0,0,0,3.86-.6,3.21,3.21,0,0,0,1.43-3.24,5.11,5.11,0,0,0-4-4.26c-9-2-16.78-.72-23.36,3.95a6.66,6.66,0,0,0-5.38-.75c-12.89-10.87-30.42-16.32-50.84-18.42a7.29,7.29,0,0,0-7.59,4.51,5.41,5.41,0,0,0,1.42,6.06,9.7,9.7,0,0,0,6.37,2.89c16.84,1.15,31.72,3.52,41,9.39a.68.68,0,0,1-.16,1.22c-12.32,4.08-27.19,3.1-43,.18a6.73,6.73,0,0,0-7.17,3.3,6.4,6.4,0,0,0-.72,3.77,7.63,7.63,0,0,0,6.49,6.68c16.88,2.57,34.72.33,53.56-6.92a6.68,6.68,0,0,0,5.82-.35A53.13,53.13,0,0,0,1194.51,492.79Z" transform="translate(-19.39 5.29)"/><path class="cls-2" d="M1199.25,485.91a28.49,28.49,0,0,1-4.15-.86,52.36,52.36,0,0,1-.59,7.73,32.93,32.93,0,0,0,4,1.3A59.85,59.85,0,0,0,1199.25,485.91Z" transform="translate(-19.39 5.29)"/><path class="cls-1" d="M990.67,718.82c5.75,8,9.44,17.87,11.88,28.91a52,52,0,0,1,14-3.37q-6.84-19.34-21.85-37.79a7.89,7.89,0,0,0-1.31-5.67c6.62-11.88,8.1-25.85,4.06-42.09a4.27,4.27,0,0,0-2.19-2.81l-.17-.08a6.07,6.07,0,0,0-8.44,7.11q4.86,18-.68,32a1.39,1.39,0,0,1-2.33.39c-6.71-7.4-11.53-17.89-14.33-31.72a5.62,5.62,0,0,0-4.82-4.46l-.16,0a6.46,6.46,0,0,0-6.75,8.23c4.64,16.41,11.76,28.48,21.62,35.81a7.9,7.9,0,0,0,1.07,6.54c-7,18.5-7.28,39.64-3.64,62.34A8.69,8.69,0,0,0,988,779.08l.16-.06a7.57,7.57,0,0,0,4.62-9.05c-4.75-18-6.65-35-4.33-50.61A1.25,1.25,0,0,1,990.67,718.82Z" transform="translate(-19.39 5.29)"/><path class="cls-1" d="M1018.16,749.35A59.15,59.15,0,0,0,1003.6,753c.81,4.45,1.45,9.05,2,13.77a9.19,9.19,0,0,0,11.93,7.85l.15-.05a6.46,6.46,0,0,0,4.2-6.78A100.91,100.91,0,0,0,1018.16,749.35Z" transform="translate(-19.39 5.29)"/><path class="cls-2" d="M1016.53,744.36a52,52,0,0,0-14,3.37q.57,2.58,1.05,5.24a59.15,59.15,0,0,1,14.56-3.63Q1017.42,746.85,1016.53,744.36Z" transform="translate(-19.39 5.29)"/><path class="cls-1" d="M921.48,665.42q-1.94-6.62-4.65-13.43a7.55,7.55,0,0,0-7.78-4.82,5.61,5.61,0,0,0-4.9,4.2,10,10,0,0,0,.38,7.23c1.45,3.33,2.82,6.61,4.06,9.82C912.86,668.81,917.16,667.59,921.48,665.42Z" transform="translate(-19.39 5.29)"/><path class="cls-1" d="M940.87,732.44c-2.48-9.19-7.36-15.78-14.79-19.6a6.91,6.91,0,0,0-1.89-5.31c2.5-11.13,1.94-23-.93-35.36a25,25,0,0,1-12.19,3c3.24,9.57,5.06,18.3,4.44,25.59a.71.71,0,0,1-1.2.44c-9.64-9.37-15.84-23.52-20.73-39.5a7,7,0,0,0-6.46-5,6.63,6.63,0,0,0-3.81,1.14,7.91,7.91,0,0,0-3,9.16c5.7,16.75,16.29,32.08,32,45.95a6.92,6.92,0,0,0,3.1,5.18c-1,7.93-.95,15.65,2.4,22.71a6.15,6.15,0,0,0,4,3.41,3.64,3.64,0,0,0,3.94-1.22,5.16,5.16,0,0,0,.38-6.06c-3.54-5.66-4.55-11.8-4.42-18.16l0,0a7,7,0,0,0,1.81-1.05,35.52,35.52,0,0,1,9.3,17.39,4.74,4.74,0,0,0,2.4,3.26,3.33,3.33,0,0,0,3.66-.24A5.29,5.29,0,0,0,940.87,732.44Z" transform="translate(-19.39 5.29)"/><path class="cls-2" d="M923.25,672.17q-.78-3.35-1.78-6.76c-4.32,2.17-8.61,3.39-12.88,3q1.33,3.44,2.46,6.77A25,25,0,0,0,923.25,672.17Z" transform="translate(-19.39 5.29)"/><path class="cls-1" d="M852.48,718.15a5,5,0,0,0-.26-4.32,3,3,0,0,0-2.95-1.65,4.22,4.22,0,0,0-3.81,3.2,22.38,22.38,0,0,1-1.63,4.39,50.79,50.79,0,0,1,6.36,2.83A23.84,23.84,0,0,0,852.48,718.15Z" transform="translate(-19.39 5.29)"/><path class="cls-1" d="M848.06,725.47a44.44,44.44,0,0,0-6-2.59,32.54,32.54,0,0,1-4.81,5.4l0,0a5.7,5.7,0,0,0-1.65-.48,29.09,29.09,0,0,1,5-15.34,3.88,3.88,0,0,0,.58-3.27,2.72,2.72,0,0,0-2.21-2,4.34,4.34,0,0,0-4.52,2.05c-4,6.66-5.19,13.28-3.25,19.85a5.65,5.65,0,0,0-2.08,4.11c-12.26,7.37-21.46,19.94-28.75,35.76a6.18,6.18,0,0,0,1.54,7.33,4.59,4.59,0,0,0,5.26.53,8.23,8.23,0,0,0,4.07-4.32c5.55-13.2,11.53-24.51,18.79-30.34a.58.58,0,0,1,.94.46c-.1,11-5,22.69-11.68,34.61a5.71,5.71,0,0,0,.68,6.66,5.43,5.43,0,0,0,2.83,1.61,6.47,6.47,0,0,0,7.14-3.38c6.7-12.85,9.79-27.79,9.15-44.91a5.67,5.67,0,0,0,1.32-4.77A45.09,45.09,0,0,0,848.06,725.47Z" transform="translate(-19.39 5.29)"/><path class="cls-2" d="M843.84,719.78a24.18,24.18,0,0,1-1.83,3.09,44.44,44.44,0,0,1,6,2.59,28,28,0,0,0,2.14-2.86A50.79,50.79,0,0,0,843.84,719.78Z" transform="translate(-19.39 5.29)"/><path class="cls-1" d="M1182.71,782.36c5.77,4.13,11.66,8,17.33,11.61a6,6,0,0,0,6.29.15,15.49,15.49,0,0,0,1.51-1,8.51,8.51,0,0,0-1.44-14.19c-4.95-2.58-10.06-5.55-15.11-8.77A43.25,43.25,0,0,0,1182.71,782.36Z" transform="translate(-19.39 5.29)"/><path class="cls-1" d="M1226.46,740.89a137.63,137.63,0,0,1-16.73-.43c-3.44-.28-6.94-.65-10.47-1.1-14.92-1.9-30.13-5.12-41.63-7.8a9.76,9.76,0,0,0-6.85-5.87c-4.16-16-10.76-30.79-20.41-43.51a7.71,7.71,0,0,0-7.63-3c-2.71.57-3.78,2.51-2.78,6.2a16.2,16.2,0,0,0,2.59,5.2c7.73,10.67,13.73,23.28,17.9,37.94a1.69,1.69,0,0,1-1.86,2.13c-11-1.45-21.86-4.26-32-10.93a11.18,11.18,0,0,0-6.18-1.9c-3.17,0-4.88,1.47-5.37,4.1a8.12,8.12,0,0,0,4.91,8.8c12.38,5.43,31.13,8.38,40.18,9.56a9.8,9.8,0,0,0,7.1,4.72c6.9,13.83,19.08,25.21,32.29,35a44.43,44.43,0,0,1,9-11.73c-11.56-7.63-22.64-16.53-30.67-25.42a.75.75,0,0,1,.86-1.18,189.53,189.53,0,0,0,37.07,11.95c3.45.71,6.89,1.29,10.29,1.75a105.37,105.37,0,0,0,18.44,1,11.12,11.12,0,0,0,9.3-5.66,5.64,5.64,0,0,0-.08-6.29A8.1,8.1,0,0,0,1226.46,740.89Z" transform="translate(-19.39 5.29)"/><path class="cls-2" d="M1179.47,780q1.61,1.19,3.24,2.36a43.25,43.25,0,0,1,8.59-12.24q-1.43-.91-2.86-1.85A44.43,44.43,0,0,0,1179.47,780Z" transform="translate(-19.39 5.29)"/></svg>