<svg id="Layer_1" data-name="Layer 1" xmlns="http://www.w3.org/2000/svg" viewBox="0 0 76.4 160.63"><defs><style>.cls-1{fill:#f7931e;}.cls-2{fill:#fabe78;}</style></defs><title>genebreaker_logo_min</title><path class="cls-1" d="M981.47,363.21c-3.06-4.58-6.2-9.64-9.32-14.95a59,59,0,0,1-14.83,7.9c3.57,6,7.22,11.71,10.68,16.83a8.25,8.25,0,0,0,7,4c3.91,0,6.05-2.61,7.37-5.85A8.53,8.53,0,0,0,981.47,363.21Z" transform="translate(-906.57 -219.86)"/><path class="cls-2" d="M965.08,335.73a58.91,58.91,0,0,1-15,7.47c2.32,4.45,4.75,8.8,7.22,13a59,59,0,0,0,14.83-7.9C969.77,344.21,967.4,340,965.08,335.73Z" transform="translate(-906.57 -219.86)"/><path class="cls-1" d="M982,233c.87-2.81,1.1-4.78,0-7a6.12,6.12,0,0,0-4.25-3.3A4.64,4.64,0,0,0,972,225a32,32,0,0,0-2,5c-5,14.68-20.32,27.55-33.93,40.79a2,2,0,0,1-3.33-.56c-5.42-12.17-9.32-24.94-8.87-39.48a13.37,13.37,0,0,0-1.92-7.49c-2-3.21-4.55-4.05-7.53-2.92a9.71,9.71,0,0,0-5.91,10.5c2.32,16.88,11.87,39.25,16,48.44a10.14,10.14,0,0,0-.48,7.78c-10.71,16.6-14.71,37.7-16.34,58.65q-.16,2.11-.3,4.21c-.49,7.65-.7,15.24-.84,22.54a7.13,7.13,0,0,0,3.78,6.51,18.52,18.52,0,0,0,2,.89,10.17,10.17,0,0,0,13.56-10.33c-.45-6.49-.62-13.36-.51-20.34q0-2,.09-3.94c.51-16.77,2.68-33.91,6.77-47.85a.89.89,0,0,1,1.74.15c2,15,8.42,30.91,16.09,45.64a58.91,58.91,0,0,0,15-7.47c-9-16.64-17.2-34.27-22-47.7a10.09,10.09,0,0,0,.66-6.63C962,263.93,977.46,247.72,982,233Z" transform="translate(-906.57 -219.86)"/></svg>