<svg id="Layer_1" data-name="Layer 1" xmlns="http://www.w3.org/2000/svg" viewBox="0 0 956.16 160.63"><defs><style>.cls-1{fill:none;}.cls-2{fill:#f7931e;}.cls-3{fill:#fabe78;}</style></defs><title>genebreaker_logo_full</title><path d="M274.44,282.17v59.88h-12a88.18,88.18,0,0,0-3.73-12.88q-12,14.6-30.53,14.6-21.91,0-34.1-15.67t-12.19-40.52q0-26.74,13-43t35.31-16.24q18.7,0,30.19,10.5t14,28l-24.94,3.28q-3-20.34-19.28-20.34-10.66,0-16.12,9.64t-5.46,27.52q0,17.23,5.91,26.33a18.9,18.9,0,0,0,16.82,9.11A19.18,19.18,0,0,0,244,317.77q5.54-4.59,5.54-14.68H228.42V282.17Z" transform="translate(-181.91 -219.86)"/><path d="M368.36,304.73H315q-.08,2.21-.08,3.86,0,8.86,4.72,13.37A15.74,15.74,0,0,0,331,326.47q12.22,0,14.68-13l22.15,1.64q-9.27,28.71-37.65,28.71-12.39,0-21-5a39.19,39.19,0,0,1-14.27-14.48q-5.62-9.51-5.62-22.8,0-19.77,11.28-31.91t29-12.14a37.7,37.7,0,0,1,27.44,11.28Q368.36,280,368.36,304.73ZM315,290.54h29.45q-1.15-17.06-14-17.06Q316.6,273.48,315,290.54Z" transform="translate(-181.91 -219.86)"/><path d="M455.81,342.05H431.36V295.54a66.65,66.65,0,0,0-.66-11.57,9.37,9.37,0,0,0-3.2-5.29,9.51,9.51,0,0,0-6.4-2.17q-12.88,0-12.88,19v46.51H383.79V259.2h22.72v14q5.66-10,11.16-12.88a25.31,25.31,0,0,1,11.89-2.87q11.81,0,19,6.36t7.22,25Z" transform="translate(-181.91 -219.86)"/><path d="M550.39,304.73H497.07q-.08,2.21-.08,3.86,0,8.86,4.72,13.37A15.74,15.74,0,0,0,513,326.47q12.22,0,14.68-13l22.15,1.64q-9.27,28.71-37.65,28.71-12.39,0-21-5a39.19,39.19,0,0,1-14.27-14.48q-5.62-9.51-5.62-22.8,0-19.77,11.28-31.91t29-12.14a37.7,37.7,0,0,1,27.44,11.28Q550.39,280,550.39,304.73ZM497,290.54h29.45q-1.15-17.06-14-17.06Q498.63,273.48,497,290.54Z" transform="translate(-181.91 -219.86)"/><path d="M567,230.08h52.17q14,0,21.08,3.44a30.75,30.75,0,0,1,11.65,9.84,26,26,0,0,1,4.59,15.57q0,18.61-20.18,24.84,11.65,2.63,17.47,10.43a27.8,27.8,0,0,1,5.82,17q0,12.56-9.52,21.71t-30.93,9.15H567Zm26.17,19.77v24.53H613q10.91,0,13.74-4.31a15.1,15.1,0,0,0,2.83-8.24,11.78,11.78,0,0,0-2.34-7.34,10,10,0,0,0-5.13-3.86q-2.79-.78-11-.78Zm0,44.46v27h20.14q10.31,0,14.57-3.61t4.26-10.09a12.54,12.54,0,0,0-4.09-9.35q-4.09-3.94-13.59-3.94Z" transform="translate(-181.91 -219.86)"/><path d="M698.95,342.05H675.24V259.2h22.39v15.42q5.17-17.23,17.88-17.23,1.8,0,4.43.25v24.12q-7.46,0-11.61,2.3t-6.77,8.24q-2.63,5.95-2.62,16Z" transform="translate(-181.91 -219.86)"/><path d="M808,304.73H754.65q-.08,2.21-.08,3.86,0,8.86,4.72,13.37a15.74,15.74,0,0,0,11.28,4.51q12.22,0,14.68-13l22.15,1.64q-9.27,28.71-37.65,28.71-12.39,0-21-5a39.19,39.19,0,0,1-14.27-14.48q-5.62-9.51-5.62-22.8,0-19.77,11.28-31.91t29-12.14a37.7,37.7,0,0,1,27.44,11.28Q808,280,808,304.73Zm-53.4-14.19H784q-1.15-17.06-14-17.06Q756.21,273.48,754.57,290.54Z" transform="translate(-181.91 -219.86)"/><path d="M895.66,342.05H872a59,59,0,0,1-1.15-13q-6.23,8.86-12.41,11.77a32.6,32.6,0,0,1-14,2.91q-11.63,0-18.8-6.32t-7.17-17a26.21,26.21,0,0,1,4.18-14.36q4.18-6.56,13.43-10.29t33.74-5.54v-4.76q0-12.06-12-12.06-12.84,0-14.31,12.06l-22.56-2.13q2.21-14.11,13.37-20a53.16,53.16,0,0,1,25.27-5.91,62.2,62.2,0,0,1,15.91,2q7.46,2,11.65,5.91a20.59,20.59,0,0,1,5.66,8.33q1.48,4.39,1.48,15.3v37.57Q894.18,337.38,895.66,342.05Zm-25.92-39.7q-25.59,2.54-25.59,15.5a11.17,11.17,0,0,0,2.7,7.51,9.56,9.56,0,0,0,7.69,3.16,13.45,13.45,0,0,0,10.83-5.37,20.3,20.3,0,0,0,4.38-13.25Z" transform="translate(-181.91 -219.86)"/><path class="cls-1" d="M969.1,287.31l27,54.75h-27l-17.3-37.53-14.38,16.53v21H914.36v-112h23.05v67.1l3.61-4.51q2.29-3.12,3.85-5L969,259.2h23.83Z" transform="translate(-181.91 -219.86)"/><path d="M1077.93,304.73h-53.32q-.08,2.21-.08,3.86,0,8.86,4.72,13.37a15.74,15.74,0,0,0,11.28,4.51q12.22,0,14.68-13l22.15,1.64q-9.27,28.71-37.65,28.71-12.39,0-21-5a39.19,39.19,0,0,1-14.27-14.48q-5.62-9.51-5.62-22.8,0-19.77,11.28-31.91t29-12.14a37.7,37.7,0,0,1,27.44,11.28Q1077.93,280,1077.93,304.73Zm-53.4-14.19H1054q-1.15-17.06-14-17.06Q1026.17,273.48,1024.53,290.54Z" transform="translate(-181.91 -219.86)"/><path d="M1117.06,342.05h-23.71V259.2h22.39v15.42q5.17-17.23,17.88-17.23,1.8,0,4.43.25v24.12q-7.46,0-11.61,2.3t-6.77,8.24q-2.63,5.95-2.62,16Z" transform="translate(-181.91 -219.86)"/><path class="cls-2" d="M987.47,363.21c-3.06-4.58-6.2-9.64-9.32-14.95a59,59,0,0,1-14.83,7.9c3.57,6,7.22,11.71,10.68,16.83a8.25,8.25,0,0,0,7,4c3.91,0,6.05-2.61,7.37-5.85A8.53,8.53,0,0,0,987.47,363.21Z" transform="translate(-181.91 -219.86)"/><path class="cls-3" d="M971.08,335.73a58.91,58.91,0,0,1-15,7.47c2.32,4.45,4.75,8.8,7.22,13a59,59,0,0,0,14.83-7.9C975.77,344.21,973.4,340,971.08,335.73Z" transform="translate(-181.91 -219.86)"/><path class="cls-2" d="M988,233c.87-2.81,1.1-4.78,0-7a6.12,6.12,0,0,0-4.25-3.3A4.64,4.64,0,0,0,978,225a32,32,0,0,0-2,5c-5,14.68-20.32,27.55-33.93,40.79a2,2,0,0,1-3.33-.56c-5.42-12.17-9.32-24.94-8.87-39.48a13.37,13.37,0,0,0-1.92-7.49c-2-3.21-4.55-4.05-7.53-2.92a9.71,9.71,0,0,0-5.91,10.5c2.32,16.88,11.87,39.25,16,48.44a10.14,10.14,0,0,0-.48,7.78c-10.71,16.6-14.71,37.7-16.34,58.65q-.16,2.11-.3,4.21c-.49,7.65-.7,15.24-.84,22.54a7.13,7.13,0,0,0,3.78,6.51,18.52,18.52,0,0,0,2,.89,10.17,10.17,0,0,0,13.56-10.33c-.45-6.49-.62-13.36-.51-20.34q0-2,.09-3.94c.51-16.77,2.68-33.91,6.77-47.85a.89.89,0,0,1,1.74.15c2,15,8.42,30.91,16.09,45.64a58.91,58.91,0,0,0,15-7.47c-9-16.64-17.2-34.27-22-47.7a10.09,10.09,0,0,0,.66-6.63C968,263.93,983.46,247.72,988,233Z" transform="translate(-181.91 -219.86)"/></svg>